<svg width="69" height="69" viewBox="0 0 69 69" fill="none" xmlns="http://www.w3.org/2000/svg">
<g clip-path="url(#clip0_111_401)">
<path d="M43.1535 11.4698L43.1476 11.6255H43.3034H52.8407C54.0183 11.6255 54.9767 12.5839 54.9767 13.7614V30.9139C54.9767 32.0914 54.0183 33.0498 52.8407 33.0498H45.6992C45.241 33.0498 44.8695 32.6785 44.8695 32.2201C44.8695 31.7618 45.241 31.3905 45.6992 31.3905H52.8407C53.1035 31.3905 53.3173 31.1769 53.3173 30.9139V13.7613C53.3173 13.4983 53.1035 13.2847 52.8407 13.2847H16.0379C15.7751 13.2847 15.5613 13.4983 15.5613 13.7613V18.5369C15.5613 18.9953 15.1899 19.3666 14.7316 19.3666C14.2734 19.3666 13.902 18.9952 13.902 18.5372V13.7616C13.902 12.584 14.8603 11.6256 16.0379 11.6256H30.9486H31.0814L31.0975 11.4938C31.2943 9.88031 32.6721 8.6261 34.3375 8.6261C35.372 8.6261 36.2895 9.09854 36.8868 9.84303L36.9942 9.97687L37.1125 9.85257C38.2225 8.68605 39.7793 8.06094 41.4227 8.16028L41.4228 8.16028C41.9794 8.19337 42.4836 8.54655 42.7049 9.05862L42.7049 9.05866C43.0333 9.81784 43.185 10.6469 43.1535 11.4698ZM41.2582 9.90756L41.222 9.8096H41.1176L41.1041 9.80954L41.0886 9.80947C39.8584 9.80947 38.7181 10.3882 37.9873 11.3868L37.8127 11.6254H38.1084H41.34H41.4814L41.4898 11.4842C41.5213 10.9512 41.4448 10.4117 41.2582 9.90756ZM35.7324 11.6255H35.9328L35.8764 11.4332C35.6803 10.7654 35.0679 10.2853 34.3376 10.2853C33.611 10.2853 32.9972 10.7703 32.7995 11.4326L32.7419 11.6255H32.9432H35.7324Z" fill="#7DA543" stroke="white" stroke-width="0.3"/>
<mask id="path-2-inside-1_111_401" fill="white">
<path d="M11.4947 55.6019C13.7742 55.8825 16.3154 56.5697 19.0478 57.6443C23.4424 59.3726 25.9541 57.9723 28.3829 56.6184C30.2225 55.5927 32.1248 54.5323 35.1469 54.5323C38.4854 54.5323 40.4218 55.5027 42.2944 56.441C44.0434 57.3175 45.8519 58.2236 48.5682 58.2236C51.8364 58.2236 53.8524 58.948 55.6311 59.5871C56.9028 60.044 58.1041 60.4756 59.4534 60.4756H66.8998C67.4409 60.4756 67.8795 60.0371 67.8795 59.4959C67.8795 58.9547 67.4409 58.5162 66.8998 58.5162H59.4534C58.4454 58.5162 57.4959 58.1751 56.2936 57.7431C54.4599 57.0843 52.1778 56.2644 48.5682 56.2644C46.3152 56.2644 44.8587 55.5345 43.1722 54.6893C41.6932 53.9482 40.0665 53.1333 37.7531 52.7685V45.8713C37.9804 45.7938 38.2103 45.7219 38.4431 45.6559C39.3185 45.4075 40.0558 44.8534 40.5405 44.1238C41.3115 44.8046 42.2567 45.2621 43.2976 45.4455C43.6301 45.5042 43.9626 45.5329 44.2925 45.5329C45.8746 45.5329 47.3885 44.8708 48.4774 43.6688C48.9218 43.1783 49.043 42.4928 48.7935 41.8797C48.3174 40.7094 47.4592 39.7336 46.3791 39.1089C46.6824 37.952 46.6242 36.7139 46.1796 35.5529C45.9429 34.935 45.3638 34.5002 44.7045 34.4456C42.693 34.2786 40.77 35.1416 39.5598 36.753C39.1485 37.3007 38.8462 37.9122 38.6517 38.5535C38.3633 38.4542 38.0619 38.391 37.7533 38.3652V33.1997H41.4333C41.9744 33.1997 42.413 32.7612 42.413 32.2201C42.413 31.6789 41.9744 31.2404 41.4333 31.2404H34.5693C34.7166 29.6563 34.2107 28.0757 33.1293 26.8527C32.6908 26.357 31.9957 26.1533 31.3594 26.3333C29.4177 26.8829 27.9192 28.3652 27.3511 30.2987C27.2599 30.6088 27.199 30.9239 27.1613 31.2402H16.0383C15.8583 31.2402 15.7118 31.0938 15.7118 30.9137V22.8029C15.7118 22.2617 15.2731 21.8232 14.7321 21.8232C14.191 21.8232 13.7524 22.2617 13.7524 22.8029V30.9137C13.7524 32.1741 14.7779 33.1996 16.0383 33.1996H21.6104C21.3545 33.9148 21.2414 34.6798 21.2874 35.4483C21.3241 36.0613 21.7119 36.6152 22.2759 36.8592C23.0051 37.1745 23.7721 37.33 24.5339 37.33C25.6733 37.33 26.8012 36.9822 27.7737 36.3013C27.9555 36.1741 28.1274 36.0364 28.2911 35.891C28.1068 36.7761 28.2571 37.7072 28.7416 38.5179C29.2391 39.3506 30.0191 39.9342 30.923 40.1801V42.4596C29.3853 41.5164 27.5101 41.3337 25.801 41.9883C25.183 42.225 24.7484 42.804 24.6938 43.4634C24.5274 45.4745 25.3899 47.3977 27.0011 48.6082C27.7381 49.1617 28.5894 49.5216 29.4753 49.6796C27.4505 52.4027 26.7456 54.9532 26.711 55.0816C26.6895 55.1615 26.6798 55.2417 26.6785 55.3209C24.6388 56.4235 22.9193 57.0612 19.7649 55.8211C16.8792 54.6862 14.1773 53.9581 11.7343 53.6575C11.1971 53.5903 10.7083 53.9731 10.6422 54.5101C10.576 55.0469 10.9578 55.5358 11.4947 55.6019ZM30.9229 53.2517C30.3161 53.4577 29.7564 53.6974 29.229 53.9518C29.5976 53.1362 30.1469 52.0966 30.9229 51.0207V53.2517ZM35.7938 52.5844C35.5831 52.5771 35.3679 52.5729 35.1469 52.5729C34.3254 52.5729 33.5755 52.6407 32.8823 52.7574V49.2581C33.3072 49.0177 33.5995 48.5958 33.6733 48.1083C34.3391 47.5756 35.0474 47.1111 35.7938 46.7165V52.5844ZM46.9146 42.4706C46.0579 43.3391 44.8446 43.7293 43.6379 43.5162C43.2633 43.4501 42.9077 43.3296 42.5796 43.1605C43.6862 42.7896 44.6791 42.0935 45.3972 41.1375C45.4544 41.0614 45.5075 40.9833 45.5606 40.905C46.1462 41.2851 46.6199 41.8282 46.9146 42.4706ZM41.1262 37.9298C41.9009 36.8988 43.1174 36.3311 44.3988 36.3892C44.8138 37.6038 44.6056 38.9287 43.8303 39.9609C43.051 40.9984 41.8392 41.5626 40.5574 41.5037C40.1411 40.2873 40.3477 38.9666 41.1262 37.9298ZM38.4055 40.6003C38.4414 41.2273 38.5776 41.8517 38.8186 42.4465C38.8738 42.5825 38.9463 42.7079 39.0329 42.8208C38.8176 43.2757 38.4107 43.6284 37.9082 43.7711C37.8562 43.7858 37.8049 43.802 37.753 43.8173V40.3398C37.9864 40.3817 38.2077 40.4701 38.4055 40.6003ZM35.7938 44.539C34.9874 44.8991 34.2155 45.3263 33.4826 45.8197C33.3423 45.3357 33.1408 44.8708 32.8823 44.4382V34.829C33.3525 34.3583 33.7424 33.8078 34.0307 33.2H35.7936V44.539H35.7938ZM29.2309 30.8514C29.5944 29.6142 30.5323 28.6552 31.755 28.2607C32.5697 29.2525 32.8394 30.5663 32.4755 31.8048C32.1097 33.0497 31.1745 34.005 29.9517 34.3977C29.1353 33.4047 28.8653 32.0953 29.2309 30.8514ZM26.6496 34.6964C25.6424 35.4014 24.38 35.5603 23.2365 35.1346C23.2322 34.452 23.4184 33.7818 23.7686 33.1997H27.2581C27.3119 33.4427 27.3809 33.6821 27.4651 33.9167C27.2365 34.2156 26.9634 34.4769 26.6496 34.6964ZM30.4234 37.513C30.2102 37.1561 30.1372 36.7512 30.1995 36.3619C30.211 36.3592 30.2226 36.3582 30.2341 36.3552C30.4698 36.2937 30.6995 36.2168 30.9229 36.127V38.0488C30.7258 37.9116 30.5549 37.7329 30.4234 37.513ZM26.6372 43.769C27.8518 43.3541 29.1768 43.5623 30.2089 44.3376C31.2463 45.1168 31.8128 46.3274 31.7516 47.6105C30.5353 48.0267 29.2145 47.8202 28.1779 47.0416C27.1468 46.267 26.5777 45.0524 26.6372 43.769Z"/>
</mask>
<path d="M11.4947 55.6019C13.7742 55.8825 16.3154 56.5697 19.0478 57.6443C23.4424 59.3726 25.9541 57.9723 28.3829 56.6184C30.2225 55.5927 32.1248 54.5323 35.1469 54.5323C38.4854 54.5323 40.4218 55.5027 42.2944 56.441C44.0434 57.3175 45.8519 58.2236 48.5682 58.2236C51.8364 58.2236 53.8524 58.948 55.6311 59.5871C56.9028 60.044 58.1041 60.4756 59.4534 60.4756H66.8998C67.4409 60.4756 67.8795 60.0371 67.8795 59.4959C67.8795 58.9547 67.4409 58.5162 66.8998 58.5162H59.4534C58.4454 58.5162 57.4959 58.1751 56.2936 57.7431C54.4599 57.0843 52.1778 56.2644 48.5682 56.2644C46.3152 56.2644 44.8587 55.5345 43.1722 54.6893C41.6932 53.9482 40.0665 53.1333 37.7531 52.7685V45.8713C37.9804 45.7938 38.2103 45.7219 38.4431 45.6559C39.3185 45.4075 40.0558 44.8534 40.5405 44.1238C41.3115 44.8046 42.2567 45.2621 43.2976 45.4455C43.6301 45.5042 43.9626 45.5329 44.2925 45.5329C45.8746 45.5329 47.3885 44.8708 48.4774 43.6688C48.9218 43.1783 49.043 42.4928 48.7935 41.8797C48.3174 40.7094 47.4592 39.7336 46.3791 39.1089C46.6824 37.952 46.6242 36.7139 46.1796 35.5529C45.9429 34.935 45.3638 34.5002 44.7045 34.4456C42.693 34.2786 40.77 35.1416 39.5598 36.753C39.1485 37.3007 38.8462 37.9122 38.6517 38.5535C38.3633 38.4542 38.0619 38.391 37.7533 38.3652V33.1997H41.4333C41.9744 33.1997 42.413 32.7612 42.413 32.2201C42.413 31.6789 41.9744 31.2404 41.4333 31.2404H34.5693C34.7166 29.6563 34.2107 28.0757 33.1293 26.8527C32.6908 26.357 31.9957 26.1533 31.3594 26.3333C29.4177 26.8829 27.9192 28.3652 27.3511 30.2987C27.2599 30.6088 27.199 30.9239 27.1613 31.2402H16.0383C15.8583 31.2402 15.7118 31.0938 15.7118 30.9137V22.8029C15.7118 22.2617 15.2731 21.8232 14.7321 21.8232C14.191 21.8232 13.7524 22.2617 13.7524 22.8029V30.9137C13.7524 32.1741 14.7779 33.1996 16.0383 33.1996H21.6104C21.3545 33.9148 21.2414 34.6798 21.2874 35.4483C21.3241 36.0613 21.7119 36.6152 22.2759 36.8592C23.0051 37.1745 23.7721 37.33 24.5339 37.33C25.6733 37.33 26.8012 36.9822 27.7737 36.3013C27.9555 36.1741 28.1274 36.0364 28.2911 35.891C28.1068 36.7761 28.2571 37.7072 28.7416 38.5179C29.2391 39.3506 30.0191 39.9342 30.923 40.1801V42.4596C29.3853 41.5164 27.5101 41.3337 25.801 41.9883C25.183 42.225 24.7484 42.804 24.6938 43.4634C24.5274 45.4745 25.3899 47.3977 27.0011 48.6082C27.7381 49.1617 28.5894 49.5216 29.4753 49.6796C27.4505 52.4027 26.7456 54.9532 26.711 55.0816C26.6895 55.1615 26.6798 55.2417 26.6785 55.3209C24.6388 56.4235 22.9193 57.0612 19.7649 55.8211C16.8792 54.6862 14.1773 53.9581 11.7343 53.6575C11.1971 53.5903 10.7083 53.9731 10.6422 54.5101C10.576 55.0469 10.9578 55.5358 11.4947 55.6019ZM30.9229 53.2517C30.3161 53.4577 29.7564 53.6974 29.229 53.9518C29.5976 53.1362 30.1469 52.0966 30.9229 51.0207V53.2517ZM35.7938 52.5844C35.5831 52.5771 35.3679 52.5729 35.1469 52.5729C34.3254 52.5729 33.5755 52.6407 32.8823 52.7574V49.2581C33.3072 49.0177 33.5995 48.5958 33.6733 48.1083C34.3391 47.5756 35.0474 47.1111 35.7938 46.7165V52.5844ZM46.9146 42.4706C46.0579 43.3391 44.8446 43.7293 43.6379 43.5162C43.2633 43.4501 42.9077 43.3296 42.5796 43.1605C43.6862 42.7896 44.6791 42.0935 45.3972 41.1375C45.4544 41.0614 45.5075 40.9833 45.5606 40.905C46.1462 41.2851 46.6199 41.8282 46.9146 42.4706ZM41.1262 37.9298C41.9009 36.8988 43.1174 36.3311 44.3988 36.3892C44.8138 37.6038 44.6056 38.9287 43.8303 39.9609C43.051 40.9984 41.8392 41.5626 40.5574 41.5037C40.1411 40.2873 40.3477 38.9666 41.1262 37.9298ZM38.4055 40.6003C38.4414 41.2273 38.5776 41.8517 38.8186 42.4465C38.8738 42.5825 38.9463 42.7079 39.0329 42.8208C38.8176 43.2757 38.4107 43.6284 37.9082 43.7711C37.8562 43.7858 37.8049 43.802 37.753 43.8173V40.3398C37.9864 40.3817 38.2077 40.4701 38.4055 40.6003ZM35.7938 44.539C34.9874 44.8991 34.2155 45.3263 33.4826 45.8197C33.3423 45.3357 33.1408 44.8708 32.8823 44.4382V34.829C33.3525 34.3583 33.7424 33.8078 34.0307 33.2H35.7936V44.539H35.7938ZM29.2309 30.8514C29.5944 29.6142 30.5323 28.6552 31.755 28.2607C32.5697 29.2525 32.8394 30.5663 32.4755 31.8048C32.1097 33.0497 31.1745 34.005 29.9517 34.3977C29.1353 33.4047 28.8653 32.0953 29.2309 30.8514ZM26.6496 34.6964C25.6424 35.4014 24.38 35.5603 23.2365 35.1346C23.2322 34.452 23.4184 33.7818 23.7686 33.1997H27.2581C27.3119 33.4427 27.3809 33.6821 27.4651 33.9167C27.2365 34.2156 26.9634 34.4769 26.6496 34.6964ZM30.4234 37.513C30.2102 37.1561 30.1372 36.7512 30.1995 36.3619C30.211 36.3592 30.2226 36.3582 30.2341 36.3552C30.4698 36.2937 30.6995 36.2168 30.9229 36.127V38.0488C30.7258 37.9116 30.5549 37.7329 30.4234 37.513ZM26.6372 43.769C27.8518 43.3541 29.1768 43.5623 30.2089 44.3376C31.2463 45.1168 31.8128 46.3274 31.7516 47.6105C30.5353 48.0267 29.2145 47.8202 28.1779 47.0416C27.1468 46.267 26.5777 45.0524 26.6372 43.769Z" fill="#7DA543" stroke="white" stroke-width="0.6" mask="url(#path-2-inside-1_111_401)"/>
<path d="M1.47348 58.1901L1.47348 58.1901C1.1104 57.9104 1.04281 57.3895 1.32247 57.0264L1.32248 57.0264C2.68195 55.2612 4.66413 54.1725 7.22855 53.7984C7.68273 53.7338 8.10348 54.0467 8.16955 54.4996C8.2357 54.953 7.92179 55.3742 7.46831 55.4405C5.36236 55.7476 3.7312 56.6183 2.63702 58.0389L2.63701 58.039C2.47368 58.2511 2.22801 58.3624 1.97903 58.3624C1.80221 58.3624 1.62435 58.3063 1.47348 58.1901Z" fill="#7DA543" stroke="white" stroke-width="0.3"/>
<path d="M1.97969 67.1906H66.9002C67.3584 67.1906 67.7299 67.562 67.7299 68.0203C67.7299 68.4786 67.3584 68.85 66.9002 68.85H1.97969C1.52147 68.85 1.15 68.4786 1.15 68.0203C1.15 67.562 1.52147 67.1906 1.97969 67.1906Z" fill="#7DA543" stroke="white" stroke-width="0.3"/>
<path d="M31.8277 59.7158C31.8277 59.2574 32.1992 58.8861 32.6574 58.8861H33.92C34.3783 58.8861 34.7497 59.2574 34.7497 59.7158C34.7497 60.1741 34.3783 60.5455 33.92 60.5455H32.6574C32.1992 60.5455 31.8277 60.1741 31.8277 59.7158Z" fill="#7DA543" stroke="white" stroke-width="0.3"/>
<path d="M37.4018 61.6171C37.4018 61.1588 37.7733 60.7874 38.2315 60.7874H40.303C40.7612 60.7874 41.1326 61.1588 41.1326 61.6171C41.1326 62.0754 40.7612 62.4468 40.303 62.4468H38.2315C37.7733 62.4468 37.4018 62.0754 37.4018 61.6171Z" fill="#7DA543" stroke="white" stroke-width="0.3"/>
<path d="M12.0449 61.2449H10.7121C10.2539 61.2449 9.88242 60.8736 9.88242 60.4152C9.88242 59.9569 10.2539 59.5855 10.7121 59.5855H12.0449C12.5031 59.5855 12.8746 59.9569 12.8746 60.4152C12.8746 60.8736 12.5031 61.2449 12.0449 61.2449Z" fill="#7DA543" stroke="white" stroke-width="0.3"/>
<path d="M51.2613 63.5939C51.2613 63.1356 51.6328 62.7643 52.091 62.7643H54.1563C54.6145 62.7643 54.986 63.1356 54.986 63.5939C54.986 64.0523 54.6145 64.4236 54.1563 64.4236H52.091C51.6328 64.4236 51.2613 64.0523 51.2613 63.5939Z" fill="#7DA543" stroke="white" stroke-width="0.3"/>
<path d="M15.0816 63.5939C15.0816 63.1356 15.4531 62.7643 15.9113 62.7643H19.2954C19.7536 62.7643 20.1251 63.1356 20.1251 63.5939C20.1251 64.0523 19.7536 64.4236 19.2954 64.4236H15.9113C15.4531 64.4236 15.0816 64.0523 15.0816 63.5939Z" fill="#7DA543" stroke="white" stroke-width="0.3"/>
<path d="M47.9991 24.2396L47.8762 24.1536C48.8836 22.7148 49.0776 20.8904 48.395 19.2716C48.1742 18.7481 47.664 18.3912 47.0964 18.363L47.9991 24.2396ZM47.9991 24.2396L47.8762 24.1536C46.9133 25.5288 45.372 26.3196 43.732 26.3198C43.4849 26.3198 43.2356 26.3017 42.9855 26.2652L42.9854 26.2652C42.9783 26.2641 42.9753 26.2634 42.97 26.2621C42.9647 26.2608 42.9571 26.259 42.9409 26.2557L42.9112 26.2497L42.8816 26.2557C42.8656 26.2589 42.858 26.2608 42.8526 26.2621C42.8472 26.2634 42.8441 26.2641 42.837 26.2652C42.5871 26.3017 42.3377 26.3198 42.0907 26.3198C40.4507 26.3198 38.9093 25.5291 37.9463 24.1537L37.9463 24.1537C36.9387 22.7148 36.7449 20.8903 37.4275 19.2717L37.4275 19.2717C37.6482 18.7482 38.1584 18.3911 38.726 18.363C40.2986 18.2862 41.7822 18.9261 42.7982 20.0922L42.9112 20.222L43.0243 20.0922C44.0405 18.926 45.5251 18.2859 47.0964 18.363L47.9991 24.2396ZM39.0227 20.0163L38.915 20.015L39.4285 23.1157L39.3057 23.2017C39.3057 23.2017 39.3057 23.2017 39.3057 23.2017C39.877 24.0177 40.7523 24.528 41.7087 24.6371L41.915 24.6606L41.8725 24.4574C41.6969 23.6159 41.7406 22.7472 41.9967 21.9277L42.0156 21.8674L41.9856 21.8118C41.9228 21.6954 41.8534 21.5813 41.7765 21.4714C41.1407 20.5637 40.1229 20.0297 39.0227 20.0163ZM43.6191 24.5595L43.6547 24.6608L43.7621 24.6597C44.8532 24.6486 45.876 24.1172 46.517 23.2017C47.1533 22.2931 47.3073 21.1541 46.9433 20.1167L46.9077 20.0151L46.8 20.0163C45.6999 20.0294 44.682 20.5636 44.0462 21.4716L44.0462 21.4716C43.4057 22.3863 43.2564 23.5294 43.6191 24.5595Z" fill="#7DA543" stroke="white" stroke-width="0.3"/>
<path d="M29.1164 19.1365H20.9152C20.457 19.1365 20.0855 18.7652 20.0855 18.3068C20.0855 17.8485 20.457 17.4771 20.9152 17.4771H29.1164C29.5746 17.4771 29.9461 17.8485 29.9461 18.3068C29.9461 18.7652 29.5746 19.1365 29.1164 19.1365Z" fill="#7DA543" stroke="white" stroke-width="0.3"/>
<path d="M32.8908 20.6288C33.349 20.6288 33.7205 21.0001 33.7205 21.4584C33.7205 21.9166 33.349 22.2881 32.8908 22.2881H20.9152C20.457 22.2881 20.0855 21.9168 20.0855 21.4584C20.0855 21.0001 20.457 20.6288 20.9152 20.6288H32.8908Z" fill="#7DA543" stroke="white" stroke-width="0.3"/>
<path d="M20.0855 26.3684C20.0855 25.91 20.457 25.5387 20.9152 25.5387H25.8198C26.278 25.5387 26.6495 25.91 26.6495 26.3684C26.6495 26.8267 26.278 27.198 25.8198 27.198H20.9152C20.457 27.198 20.0855 26.8267 20.0855 26.3684Z" fill="#7DA543" stroke="white" stroke-width="0.3"/>
</g>
<defs>
<clipPath id="clip0_111_401">
<rect width="69" height="69" fill="white"/>
</clipPath>
</defs>
</svg>
