<svg width="69" height="69" viewBox="0 0 69 69" fill="none" xmlns="http://www.w3.org/2000/svg">
<g clip-path="url(#clip0_111_419)">
<path d="M57.2853 17.0804C56.8695 15.1654 55.1305 13.7769 53.0455 13.7769C50.96 13.7769 49.2206 15.166 48.8054 17.0818C47.5903 17.3314 46.5473 18.0808 45.9399 19.1102L36.1845 9.6717C35.9281 9.42356 35.5124 9.42356 35.256 9.6717L19.5032 24.9125C19.2489 25.1489 19.249 25.5743 19.5032 25.8108L27.7492 33.7888C28.0057 34.0369 28.4213 34.0369 28.6778 33.7888C28.9343 33.5407 28.9343 33.1385 28.6778 32.8905L20.8962 25.3616L26.0249 20.3995C26.3443 25.9021 33.0642 29.2326 38.2148 28.2407C38.4523 28.1843 38.6379 28.0049 38.6961 27.7749C39.4357 24.8566 38.0781 20.5865 35.6696 18.2562C34.3719 17.0247 32.5046 16.031 30.5914 15.9813L35.7202 11.0192L47.931 22.8332L32.6968 37.5728C32.4391 37.8319 32.3876 38.288 32.6693 38.5491L33.8939 39.7339C34.0159 39.8506 34.1862 39.9195 34.3583 39.9203L41.7891 39.9224H41.7892C41.9634 39.9224 42.1304 39.8556 42.2536 39.7363L54.292 28.0891C54.5729 27.7736 54.4855 27.377 54.292 27.1908L46.9172 20.0557C47.343 19.0684 48.3149 18.3672 49.4397 18.2726C49.7571 18.2458 50.0088 18.0025 50.0368 17.6953C50.1717 16.2105 51.4933 15.0476 53.0455 15.0476C54.5976 15.0476 55.9192 16.2105 56.0541 17.6953C56.0821 18.0025 56.3338 18.246 56.6514 18.2726C58.1956 18.4024 59.4052 19.6726 59.4052 21.1644C59.4052 22.7658 58.0499 24.0686 56.384 24.0686C56.0214 24.0686 55.7274 24.3529 55.7274 24.7039C55.7274 25.0548 56.0214 25.3391 56.384 25.3391C58.774 25.3391 60.7184 23.4664 60.7184 21.1644C60.7184 19.1549 59.2753 17.4792 57.2853 17.0804ZM30.6203 17.2518C32.1836 17.3282 33.6882 18.1611 34.7409 19.1546C36.7198 21.0694 37.926 24.6004 37.5021 27.0856C34.9338 27.4964 31.2837 26.3289 29.3048 24.4143C27.9161 23.0344 26.5724 20.5259 27.8889 18.6833L30.1835 20.9033L30.604 24.0922C30.7024 24.914 32.0266 24.7457 31.9067 23.9314L31.7011 22.3714L33.849 24.4495C34.4426 25.0412 35.3889 24.1253 34.7776 23.5512L32.6297 21.473L34.2419 21.672C35.0812 21.7906 35.2574 20.5037 34.4082 20.4116L31.1121 20.0048L28.8174 17.7846C29.3558 17.4352 29.9793 17.2518 30.6203 17.2518ZM52.8992 27.6398L41.5175 38.6516L34.6305 38.6497L34.0357 38.0742L48.8599 23.7318L52.8992 27.6398Z" fill="#7DA543"/>
<path d="M38.3019 50.2008C36.7451 50.2008 35.4785 48.662 35.4785 46.7704C35.4785 44.8788 36.7451 43.3399 38.3019 43.3399C39.8588 43.3399 41.1254 44.8788 41.1254 46.7704C41.1254 48.662 39.8588 50.2008 38.3019 50.2008ZM38.3019 44.6105C37.4834 44.6105 36.7917 45.5996 36.7917 46.7704C36.7917 47.9412 37.4834 48.9303 38.3019 48.9303C39.1205 48.9303 39.8121 47.9412 39.8121 46.7704C39.8121 45.5996 39.1205 44.6105 38.3019 44.6105Z" fill="#7DA543"/>
<path d="M64.3431 67.2109H61.2596C61.3687 66.2756 60.9847 63.2017 58.2393 61.8374C59.0995 61.1608 59.8648 60.7185 60.4451 60.5696C60.7956 60.4797 61.0044 60.1318 60.9114 59.7927C60.8185 59.4536 60.459 59.2517 60.1084 59.3415C59.1294 59.5928 58.051 60.3264 57.1768 61.0397C57.501 59.9735 58.1681 58.5629 59.5395 57.3696C59.8091 57.135 59.8311 56.7333 59.5886 56.4724C59.3459 56.2114 58.931 56.1902 58.6612 56.4249C56.8623 57.9903 56.1073 59.8715 55.7911 61.1365C55.097 61.0598 54.3463 61.057 53.5378 61.1314C52.1222 58.5841 48.3388 55.3204 43.0733 56.868C42.1471 55.45 40.5113 55.4728 39.4563 56.1366C38.5343 55.295 37.1473 54.4588 35.1869 54.2905C34.9925 52.6276 33.8135 51.3445 32.3922 51.3445C30.8354 51.3445 29.5688 52.8833 29.5688 54.7749C29.5688 55.084 29.6032 55.3834 29.6665 55.6685C28.7141 56.3761 28.1081 57.1942 27.7748 57.7387C22.2138 55.0184 17.2954 56.9896 15.0091 61.1303C14.1986 61.056 13.4459 61.0599 12.7504 61.1382C12.4326 59.865 11.6766 57.9884 9.87967 56.4247C9.61007 56.1902 9.19496 56.2113 8.95241 56.4722C8.70985 56.7331 8.73178 57.1348 9.00152 57.3695C10.3716 58.5618 11.039 59.9692 11.3643 61.0397C10.4894 60.3259 9.41138 59.5927 8.43263 59.3415C8.08253 59.2517 7.72257 59.4536 7.6296 59.7927C7.53662 60.1318 7.74542 60.4797 8.09592 60.5696C8.67755 60.7189 9.44539 61.1637 10.308 61.843C9.92708 62.0396 9.5754 62.2725 9.25589 62.5444C7.03839 64.6863 7.37483 66.4013 7.28343 67.2109H4.19763C3.83505 67.2109 3.54102 67.4952 3.54102 67.8461C3.54102 68.1971 3.83505 68.4814 4.19763 68.4814H64.3431C64.7057 68.4814 64.9998 68.1971 64.9998 67.8461C64.9998 67.4952 64.7057 67.2109 64.3431 67.2109ZM40.928 56.9348C41.7466 56.9348 42.4382 57.924 42.4382 59.0948C42.4382 60.2656 41.7466 61.2547 40.928 61.2547C40.1095 61.2547 39.4178 60.2656 39.4178 59.0948C39.4178 57.924 40.1095 56.9348 40.928 56.9348ZM32.3921 52.615C33.2106 52.615 33.9023 53.6041 33.9023 54.7749C33.9023 55.9457 33.2106 56.9348 32.3921 56.9348C31.5736 56.9348 30.8819 55.9457 30.8819 54.7749C30.8819 53.6041 31.5736 52.615 32.3921 52.615ZM8.59679 67.2109C8.68188 66.4907 8.37419 65.2306 10.1346 63.4888C11.291 62.5115 13.0319 62.1584 15.3092 62.441C15.5989 62.4761 15.879 62.3219 15.9953 62.0626C16.0083 62.0335 17.3348 59.1453 20.3568 58.1163C22.4892 57.3902 24.9775 57.7378 27.752 59.1497C28.0813 59.3263 28.5302 59.1682 28.6652 58.8283C28.6702 58.8165 29.1071 57.8072 30.1748 56.906C30.1924 56.9332 30.2121 56.9584 30.2328 56.9816C30.7511 57.7292 31.5265 58.2053 32.3921 58.2053C33.7152 58.2053 34.8281 57.0935 35.1326 55.5986C35.1354 55.5864 35.139 55.574 35.1413 55.5619C36.7473 55.7191 37.875 56.4222 38.6161 57.1156C37.3505 59.0476 38.5787 62.6123 40.928 62.525C42.8658 62.5975 44.2229 60.0087 43.6165 58.0401C48.304 56.4155 52.3143 60.9844 52.5693 62.077C52.6896 62.3286 52.9653 62.4758 53.2487 62.4406C55.5261 62.158 57.267 62.511 58.4233 63.4884C60.1855 65.2462 59.8869 66.4783 59.9462 67.2105H8.59679V67.2109Z" fill="#7DA543"/>
<path d="M13.4894 46.2043C10.316 46.2043 7.73438 43.7066 7.73438 40.6364C7.73438 37.7847 12.4268 31.577 12.9619 30.8784C13.2072 30.5396 13.7716 30.5396 14.017 30.8784C14.552 31.577 19.2444 37.7846 19.2444 40.6364C19.2444 43.7066 16.6627 46.2043 13.4894 46.2043ZM13.4894 32.3417C11.8901 34.5307 9.0476 38.8014 9.0476 40.6364C9.0476 43.006 11.0401 44.9338 13.4894 44.9338C15.9387 44.9338 17.9311 43.006 17.9311 40.6364C17.9311 38.8014 15.0887 34.5306 13.4894 32.3417Z" fill="#7DA543"/>
<path d="M13.1004 43.2464C13.0595 43.2464 13.0182 43.2427 12.9765 43.235C11.7022 42.9995 10.7684 41.9175 10.7559 40.6621C10.7556 40.6363 10.7571 40.6105 10.76 40.585C10.778 40.4304 10.8679 39.9687 11.3127 39.0235C11.4629 38.7043 11.8523 38.5633 12.1823 38.7085C12.5123 38.854 12.6581 39.2306 12.5079 39.55C12.1796 40.2475 12.091 40.5985 12.0704 40.6982C12.0996 41.33 12.5771 41.8677 13.2228 41.987C13.9918 42.1103 13.8694 43.2662 13.1004 43.2464Z" fill="#7DA543"/>
<path d="M58.141 46.806C56.0483 46.806 54.3457 45.1588 54.3457 43.134C54.3457 41.2999 57.279 37.4179 57.6135 36.9812C57.8588 36.6423 58.4233 36.6423 58.6686 36.9812C59.003 37.4179 61.9364 41.2999 61.9364 43.134C61.9364 45.1588 60.2338 46.806 58.141 46.806ZM58.141 38.4511C57.0197 40.0169 55.6588 42.2171 55.6588 43.1339C55.6588 44.4581 56.7723 45.5354 58.1409 45.5354C59.5096 45.5354 60.623 44.4581 60.623 43.1339C60.6232 42.2162 59.2624 40.0163 58.141 38.4511Z" fill="#7DA543"/>
<path d="M15.0913 20.5622H8.41449C6.02443 20.5622 4.08008 18.6894 4.08008 16.3876C4.08008 14.3781 5.52305 12.7025 7.51323 12.3033C7.92887 10.3884 9.66783 9 11.7528 9C13.8378 9 15.5768 10.3884 15.9926 12.3033C17.9826 12.7025 19.4256 14.378 19.4256 16.3876C19.4257 18.6894 17.4812 20.5622 15.0913 20.5622ZM11.7528 10.2705C10.2006 10.2705 8.87911 11.4335 8.74411 12.9181C8.71614 13.2253 8.4644 13.4686 8.14699 13.4954C6.60277 13.6253 5.39317 14.8957 5.39317 16.3876C5.39317 17.989 6.74854 19.2917 8.41436 19.2917H15.0912C16.7571 19.2917 18.1124 17.9888 18.1124 16.3876C18.1124 14.8958 16.9028 13.6254 15.3587 13.4954C15.0413 13.4686 14.7895 13.2253 14.7616 12.9182C14.6266 11.4335 13.3051 10.2705 11.7528 10.2705Z" fill="#7DA543"/>
<path d="M30.3563 36.1792C30.7915 36.1792 31.1442 35.8379 31.1442 35.4169C31.1442 34.9958 30.7915 34.6545 30.3563 34.6545C29.9211 34.6545 29.5684 34.9958 29.5684 35.4169C29.5684 35.8379 29.9211 36.1792 30.3563 36.1792Z" fill="#7DA543"/>
</g>
<defs>
<clipPath id="clip0_111_419">
<rect width="69" height="69" fill="white"/>
</clipPath>
</defs>
</svg>
