<svg width="69" height="69" viewBox="0 0 69 69" fill="none" xmlns="http://www.w3.org/2000/svg">
<g clip-path="url(#clip0_111_342)">
<path d="M15.4778 57.7263H13.3841C13.0553 57.7263 12.7888 57.4598 12.7888 57.131C12.7888 56.8023 13.0553 56.5357 13.3841 56.5357H15.4778C15.8067 56.5357 16.0731 56.8023 16.0731 57.131C16.0731 57.4598 15.8065 57.7263 15.4778 57.7263Z" fill="#7DA543"/>
<path d="M21.4309 57.7263H19.3373C19.0084 57.7263 18.7419 57.4598 18.7419 57.131C18.7419 56.8023 19.0084 56.5357 19.3373 56.5357H21.4309C21.7598 56.5357 22.0263 56.8023 22.0263 57.131C22.0263 57.4598 21.7597 57.7263 21.4309 57.7263Z" fill="#7DA543"/>
<path d="M27.3839 57.7264H25.2903C24.9614 57.7264 24.6949 57.4598 24.6949 57.1311C24.6949 56.8023 24.9614 56.5357 25.2903 56.5357H27.3839C27.7128 56.5357 27.9793 56.8023 27.9793 57.1311C27.9793 57.4598 27.7127 57.7264 27.3839 57.7264Z" fill="#7DA543"/>
<path d="M17.8587 61.2984H15.765C15.4361 61.2984 15.1697 61.0318 15.1697 60.703C15.1697 60.3743 15.4361 60.1077 15.765 60.1077H17.8587C18.1875 60.1077 18.454 60.3743 18.454 60.703C18.454 61.0318 18.1874 61.2984 17.8587 61.2984Z" fill="#7DA543"/>
<path d="M23.8119 61.2984H21.7183C21.3894 61.2984 21.1229 61.0318 21.1229 60.7031C21.1229 60.3743 21.3894 60.1077 21.7183 60.1077H23.8119C24.1408 60.1077 24.4072 60.3743 24.4072 60.7031C24.4072 61.0318 24.1407 61.2984 23.8119 61.2984Z" fill="#7DA543"/>
<path d="M58.3411 57.7264H56.2474C55.9186 57.7264 55.6521 57.4598 55.6521 57.1311C55.6521 56.8023 55.9186 56.5357 56.2474 56.5357H58.3411C58.6699 56.5357 58.9364 56.8023 58.9364 57.1311C58.9364 57.4598 58.6698 57.7264 58.3411 57.7264Z" fill="#7DA543"/>
<path d="M52.3882 57.7264H50.2945C49.9657 57.7264 49.6992 57.4598 49.6992 57.1311C49.6992 56.8023 49.9657 56.5357 50.2945 56.5357H52.3882C52.7171 56.5357 52.9835 56.8023 52.9835 57.1311C52.9835 57.4598 52.7169 57.7264 52.3882 57.7264Z" fill="#7DA543"/>
<path d="M46.435 57.7263H44.3413C44.0124 57.7263 43.746 57.4598 43.746 57.131C43.746 56.8023 44.0124 56.5357 44.3413 56.5357H46.435C46.7638 56.5357 47.0303 56.8023 47.0303 57.131C47.0303 57.4598 46.7637 57.7263 46.435 57.7263Z" fill="#7DA543"/>
<path d="M55.9602 61.2984H53.8666C53.5377 61.2984 53.2712 61.0318 53.2712 60.7031C53.2712 60.3743 53.5377 60.1077 53.8666 60.1077H55.9602C56.2891 60.1077 56.5556 60.3743 56.5556 60.7031C56.5556 61.0318 56.289 61.2984 55.9602 61.2984Z" fill="#7DA543"/>
<path d="M50.0072 61.2984H47.9136C47.5847 61.2984 47.3182 61.0318 47.3182 60.703C47.3182 60.3743 47.5847 60.1077 47.9136 60.1077H50.0072C50.3361 60.1077 50.6026 60.3743 50.6026 60.703C50.6026 61.0318 50.336 61.2984 50.0072 61.2984Z" fill="#7DA543"/>
<path d="M61.1724 27.3047C59.8767 25.6373 56.947 24.4595 54.6415 24.6808C52.8357 24.8511 50.613 26.0077 50.5099 28.0469L45.5946 28.5171L53.327 20.6969C55.0282 21.8464 57.3298 20.8612 58.6163 19.5738C60.2459 17.936 61.128 14.9662 60.5825 12.9536C60.5246 12.7395 60.3521 12.5753 60.1354 12.5278C58.0577 12.0719 55.0476 13.0287 53.4246 14.6598C52.1441 15.9426 51.2036 18.243 52.4464 19.8647L44.6482 27.7806V24.1903C46.6478 23.8971 47.6271 21.6371 47.642 19.8374C47.6639 17.5474 46.2181 14.766 44.4191 13.6371C44.2333 13.5206 43.9984 13.5156 43.8078 13.6243C41.9817 14.6655 40.4781 17.3799 40.4561 19.6747C40.4326 21.512 41.4177 23.8568 43.4576 24.1807V28.9847L36.4567 36.0651V19.2892C38.4034 18.5949 39.4527 16.2836 39.4754 14.358C39.4754 12.1382 38.1936 10.1098 36.1303 9.0643C35.9612 8.97857 35.7612 8.97857 35.5921 9.0643C33.529 10.1098 32.2472 12.1382 32.2472 14.358C32.2692 16.2826 33.3196 18.5959 35.266 19.2892V40.6488L28.3245 33.6286V28.8245C30.3644 28.5006 31.3495 26.1559 31.326 24.3186C31.3039 22.0236 29.8004 19.3093 27.9743 18.2681C27.7837 18.1595 27.5487 18.1645 27.363 18.281C25.564 19.4097 24.1182 22.1912 24.1401 24.4812C24.155 26.2809 25.1342 28.5409 27.1339 28.8341V32.4244L19.3357 24.5085C20.5785 22.8867 19.638 20.5863 18.3575 19.3036C16.7343 17.6723 13.7242 16.7156 11.6465 17.1714C11.4298 17.2189 11.2574 17.383 11.1994 17.5972C10.654 19.6097 11.536 22.5795 13.1657 24.2173C14.4523 25.5047 16.7538 26.49 18.455 25.3405L26.1873 33.1606L21.2721 32.6904C21.169 30.6513 18.9461 29.4947 17.1404 29.3243C14.835 29.1031 11.9053 30.2809 10.6096 31.9483C10.4718 32.1256 10.4455 32.3654 10.5417 32.5684C11.434 34.4529 14.0405 36.1657 16.3518 36.3868C18.1792 36.5607 20.5951 35.8429 21.142 33.8742L27.4935 34.4817L28.6548 35.6561H27.7955C25.6843 35.6561 23.9668 37.3665 23.9668 39.4689V40.3234L22.7897 38.987C22.5724 38.7403 22.1963 38.7164 21.9494 38.9338C21.7027 39.1511 21.6789 39.5272 21.8962 39.774L23.2958 41.3632C20.6619 41.8141 18.9116 43.722 18.9116 46.31C18.9116 49.4346 21.4304 51.9765 24.5265 51.9765C27.6226 51.9765 30.1414 49.4346 30.1414 46.31C30.1414 43.7448 28.4215 41.8484 25.8263 41.3761L27.2335 39.7318C27.4473 39.482 27.418 39.1062 27.1682 38.8923C26.9185 38.6786 26.5428 38.7078 26.3288 38.9576L25.1572 40.3265V39.4689C25.1572 38.023 26.3406 36.8468 27.7952 36.8468H29.8318L35.2658 42.3424V46.5197C35.2658 46.8485 35.5322 47.115 35.8611 47.115C36.19 47.115 36.4564 46.8485 36.4564 46.5197V37.7588L41.9498 32.2031H43.9864C45.441 32.2031 46.6244 33.3794 46.6244 34.8252V35.6828L45.4528 34.3139C45.2389 34.0641 44.8631 34.0349 44.6134 34.2487C44.3636 34.4624 44.3343 34.8383 44.5482 35.0881L45.9553 36.7324C43.36 37.2047 41.6402 39.1011 41.6402 41.6664C41.6402 44.7909 44.159 47.3328 47.2551 47.3328C50.3512 47.3328 52.87 44.7909 52.87 41.6664C52.87 39.0782 51.1199 37.1703 48.4858 36.7195L49.8854 35.1303C50.1027 34.8836 50.0789 34.5075 49.8322 34.2901C49.5855 34.0727 49.2094 34.0966 48.9919 34.3433L47.8148 35.6797V34.8252C47.8148 32.7228 46.0973 31.0124 43.9862 31.0124H43.1269L44.2881 29.838L50.6396 29.2305C51.1866 31.1994 53.6024 31.917 55.4298 31.7432C57.7411 31.5222 60.3476 29.8092 61.2399 27.9247C61.3365 27.7218 61.3101 27.482 61.1724 27.3047ZM54.2686 15.4997C55.5196 14.2424 57.8278 13.4383 59.51 13.6299C59.7587 15.2404 59.0143 17.4856 57.7722 18.7339C56.9185 19.5581 55.4117 20.4064 54.1943 19.8196L56.7259 17.2517C56.9578 17.0186 56.9569 16.6417 56.7237 16.4098C56.4906 16.1779 56.1136 16.179 55.8819 16.412L53.3034 19.0033C52.6195 17.8324 53.4583 16.3529 54.2686 15.4997ZM18.4784 23.6468L15.8999 21.0554C15.6682 20.8224 15.2913 20.8213 15.0581 21.0533C14.825 21.2852 14.824 21.6622 15.056 21.8952L17.5876 24.4631C16.3701 25.0499 14.8633 24.2015 14.0096 23.3773C12.7677 22.1292 12.0233 19.8839 12.2719 18.2735C13.9542 18.0819 16.2624 18.8859 17.5133 20.1433C18.3236 20.9965 19.1626 22.476 18.4784 23.6468ZM16.2867 33.4096L19.9164 33.7568C19.3645 34.9962 17.652 35.2891 16.4651 35.2015C14.6977 35.0325 12.6618 33.7841 11.7995 32.3915C12.9635 31.1829 15.2519 30.3397 17.0269 30.5095C18.1992 30.65 19.8056 31.2439 20.0576 32.5742L16.3998 32.2244C16.0741 32.1929 15.7819 32.433 15.7505 32.7603C15.7194 33.0876 15.9593 33.3783 16.2867 33.4096ZM27.7291 23.4051C27.4003 23.4051 27.1338 23.6717 27.1338 24.0004V27.6141C25.8417 27.2507 25.3679 25.6386 25.3307 24.4696C25.3139 22.7112 26.3689 20.5356 27.6937 19.502C29.0296 20.4661 30.1186 22.578 30.1353 24.3299C30.1243 25.5268 29.6451 27.2086 28.3245 27.6V24.0005C28.3245 23.6717 28.0579 23.4051 27.7291 23.4051ZM28.9509 46.3098C28.9509 48.7778 26.9662 50.7856 24.5266 50.7856C22.0871 50.7856 20.1024 48.7778 20.1024 46.3098C20.1024 43.6442 22.3244 42.451 24.5266 42.451C26.7289 42.451 28.9509 43.6443 28.9509 46.3098ZM35.0856 17.8888C34.0384 16.9811 33.4379 15.6941 33.4379 14.358C33.4379 12.687 34.3588 11.1474 35.8613 10.2727C37.3637 11.1472 38.2847 12.687 38.2847 14.358C38.2804 15.7479 37.6222 17.159 36.4566 18.017V14.3577C36.4566 14.029 36.1901 13.7624 35.8612 13.7624C35.5324 13.7624 35.2659 14.029 35.2659 14.3577V18.017C35.2028 17.9804 35.1423 17.9379 35.0856 17.8888ZM47.2555 37.8075C49.4577 37.8075 51.6797 39.0007 51.6797 41.6664C51.6797 44.1343 49.695 46.1422 47.2555 46.1422C44.8159 46.1422 42.8312 44.1343 42.8312 41.6664C42.8312 39.0007 45.0532 37.8075 47.2555 37.8075ZM44.053 18.7615C43.7241 18.7615 43.4576 19.0281 43.4576 19.3568V22.9563C42.1369 22.5649 41.6578 20.8833 41.6468 19.6862C41.6635 17.9344 42.7525 15.8224 44.0884 14.8583C45.4132 15.892 46.4681 18.0676 46.4514 19.826C46.4143 20.9949 45.9404 22.607 44.6483 22.9704V19.3567C44.6483 19.0281 44.3817 18.7615 44.053 18.7615ZM55.3168 30.558C54.13 30.6455 52.4176 30.3526 51.8656 29.1132L55.4953 28.766C55.8226 28.7347 56.0627 28.4441 56.0314 28.1168C55.9999 27.7894 55.7077 27.5493 55.3821 27.5808L51.7243 27.9307C51.9762 26.6003 53.5826 26.0063 54.755 25.8659C56.53 25.696 58.8183 26.5394 59.9823 27.7479C59.1203 29.1405 57.0843 30.3889 55.3168 30.558Z" fill="#7DA543"/>
<path d="M35.8257 51.0374C36.2203 51.0374 36.5401 50.7176 36.5401 50.323C36.5401 49.9285 36.2203 49.6086 35.8257 49.6086C35.4312 49.6086 35.1113 49.9285 35.1113 50.323C35.1113 50.7176 35.4312 51.0374 35.8257 51.0374Z" fill="#7DA543"/>
<path d="M62.0565 52.9355H9.66747C9.33861 52.9355 9.07214 53.202 9.07214 53.5308V64.1417C9.07214 64.4705 9.33861 64.737 9.66747 64.737H62.0565C62.3854 64.737 62.6518 64.4705 62.6518 64.1417V53.5308C62.6518 53.202 62.3853 52.9355 62.0565 52.9355ZM61.4612 63.5464H10.2628V54.1261H35.2667V58.0302L32.9012 60.1212C32.3143 60.6247 33.1198 61.5332 33.6898 61.0132L35.2665 59.6193V61.9721C35.2665 62.3008 35.533 62.5674 35.8619 62.5674C36.1907 62.5674 36.4572 62.3008 36.4572 61.9721V57.3278L38.0185 58.7079C38.5887 59.2281 39.3938 58.3189 38.8071 57.8159L36.4572 55.7386V54.1261H61.4611V63.5464H61.4612Z" fill="#7DA543"/>
<path d="M11.3813 45.6295C10.0683 45.6295 9 44.5613 9 43.2482C9 41.9352 10.0683 40.8669 11.3813 40.8669C12.6944 40.8669 13.7626 41.9352 13.7626 43.2482C13.7626 44.5613 12.6945 45.6295 11.3813 45.6295ZM11.3813 42.0575C10.7248 42.0575 10.1907 42.5917 10.1907 43.2482C10.1907 43.9047 10.7248 44.4389 11.3813 44.4389C12.0378 44.4389 12.572 43.9047 12.572 43.2482C12.572 42.5917 12.0378 42.0575 11.3813 42.0575Z" fill="#7DA543"/>
<path d="M22.7661 13.8175C21.453 13.8175 20.3848 12.7492 20.3848 11.4362C20.3848 10.1231 21.453 9.05484 22.7661 9.05484C24.0791 9.05484 25.1474 10.1231 25.1474 11.4362C25.1474 12.7492 24.0791 13.8175 22.7661 13.8175ZM22.7661 10.2455C22.1096 10.2455 21.5754 10.7796 21.5754 11.4362C21.5754 12.0927 22.1096 12.6268 22.7661 12.6268C23.4226 12.6268 23.9567 12.0927 23.9567 11.4362C23.9567 10.7796 23.4225 10.2455 22.7661 10.2455Z" fill="#7DA543"/>
<path d="M60.0337 48.9232C58.7206 48.9232 57.6523 47.8549 57.6523 46.5418C57.6523 45.2288 58.7206 44.1605 60.0337 44.1605C61.3467 44.1605 62.415 45.2288 62.415 46.5418C62.415 47.8549 61.3467 48.9232 60.0337 48.9232ZM60.0337 45.3512C59.3771 45.3512 58.843 45.8853 58.843 46.5418C58.843 47.1984 59.3771 47.7325 60.0337 47.7325C60.6902 47.7325 61.2243 47.1984 61.2243 46.5418C61.2243 45.8853 60.6901 45.3512 60.0337 45.3512Z" fill="#7DA543"/>
</g>
<defs>
<clipPath id="clip0_111_342">
<rect width="69" height="69" fill="white"/>
</clipPath>
</defs>
</svg>
