<svg width="69" height="69" viewBox="0 0 69 69" fill="none" xmlns="http://www.w3.org/2000/svg">
<path fill-rule="evenodd" clip-rule="evenodd" d="M64.2728 61.7568H58.0935C57.6924 61.7568 57.3669 61.4045 57.3669 60.9713C57.3669 58.5131 55.5177 56.5137 53.2442 56.5137C50.9712 56.5137 49.122 58.5131 49.122 60.9713C49.122 61.405 48.7962 61.7568 48.3955 61.7568H42.2161C41.815 61.7568 41.4895 61.4045 41.4895 60.9713V45.336C41.4895 44.9024 41.8155 44.5504 42.2161 44.5504H58.3322C62.0085 44.5504 65 47.7845 65 51.7592V60.9715C64.9994 61.4045 64.6739 61.7568 64.2728 61.7568ZM58.7731 60.1854H63.5463V51.7592C63.5463 48.6508 61.2071 46.1222 58.3322 46.1222H42.9426V60.1854H47.7159C48.073 57.2313 50.4164 54.9421 53.2442 54.9421C56.072 54.9421 58.4159 57.2313 58.7731 60.1854Z" fill="#7DA543"/>
<path fill-rule="evenodd" clip-rule="evenodd" d="M63.1807 51.2571C58.4024 51.2571 58.1082 44.2579 59.9651 44.7716C62.3683 45.4323 64.2785 47.5468 64.8321 50.1591C65.0443 51.1573 63.8 51.2571 63.1807 51.2571ZM60.3636 46.5715C60.3204 48.2589 61.5953 49.6838 63.177 49.6853C62.661 48.2954 61.6371 47.1629 60.3636 46.5715Z" fill="#7DA543"/>
<path fill-rule="evenodd" clip-rule="evenodd" d="M58.3322 46.1222L42.2162 46.1223C41.8151 46.1223 41.4895 45.7692 41.4895 45.336L41.4896 35.9152C41.4896 35.4815 41.8155 35.1295 42.2162 35.1295H53.9763C56.7792 35.1295 59.0592 37.5949 59.0592 40.6254V45.3362C59.0588 45.7699 58.7333 46.1222 58.3322 46.1222ZM42.9427 44.5506H57.6057V40.6254C57.6057 38.4611 55.9775 36.7007 53.9766 36.7007H42.9433L42.9427 44.5506Z" fill="#7DA543"/>
<path fill-rule="evenodd" clip-rule="evenodd" d="M45.7389 46.1217C45.3378 46.1217 45.0123 45.7694 45.0123 45.3362V35.9152C45.0123 34.881 46.4654 34.881 46.4654 35.9152V45.3362C46.4654 45.7694 46.14 46.1217 45.7389 46.1217Z" fill="#7DA543"/>
<path fill-rule="evenodd" clip-rule="evenodd" d="M54.826 52.7966H42.2157C41.2592 52.7966 41.2595 51.2253 42.2157 51.2253H54.0995V45.3361C54.0995 44.3018 55.5526 44.3022 55.5526 45.3361V52.0103C55.5532 52.444 55.2271 52.7966 54.826 52.7966Z" fill="#7DA543"/>
<path fill-rule="evenodd" clip-rule="evenodd" d="M64.2728 58.6433H57.1465C56.1899 58.6433 56.1903 57.0722 57.1465 57.0722H64.2728C65.2291 57.0722 65.2291 58.6433 64.2728 58.6433ZM49.3419 58.6433H42.2157C41.2592 58.6433 41.2595 57.0722 42.2157 57.0722H49.3419C50.2982 57.0722 50.2985 58.6433 49.3419 58.6433Z" fill="#7DA543"/>
<path fill-rule="evenodd" clip-rule="evenodd" d="M53.2442 67C50.1699 67 47.6684 64.2952 47.6684 60.9712C47.6684 57.6466 50.1699 54.9421 53.2442 54.9421C56.319 54.9421 58.8205 57.6466 58.8205 60.9712C58.82 64.2952 56.3184 67 53.2442 67ZM53.2442 56.5137C50.9712 56.5137 49.122 58.5131 49.122 60.9713C49.122 63.429 50.9712 65.4282 53.2442 65.4282C55.5177 65.4282 57.3669 63.429 57.3669 60.9713C57.3669 58.5131 55.5177 56.5137 53.2442 56.5137Z" fill="#7DA543"/>
<path fill-rule="evenodd" clip-rule="evenodd" d="M53.2442 64.0365C49.5132 64.0365 49.5139 57.9056 53.2442 57.9056C56.9758 57.9056 56.9754 64.0365 53.2442 64.0365ZM53.2442 59.4774C51.4265 59.4774 51.4267 62.4647 53.2442 62.4647C55.0621 62.4647 55.0621 59.4774 53.2442 59.4774Z" fill="#7DA543"/>
<path fill-rule="evenodd" clip-rule="evenodd" d="M42.2161 61.7568L17.3892 61.7569C16.9883 61.7569 16.6627 61.4046 16.6627 60.9714C16.6627 58.5131 14.813 56.5137 12.54 56.5137C10.2671 56.5137 8.41733 58.5131 8.41733 60.9714C8.41733 61.405 8.09178 61.7569 7.69071 61.7569H3.72648C3.32555 61.7569 3 61.4046 3 60.9714V50.9665C3 50.5328 3.32555 50.181 3.72648 50.181L42.2156 50.1812C42.6167 50.1812 42.9422 50.5335 42.9422 50.9668V60.9715C42.9425 61.4046 42.6172 61.7568 42.2161 61.7568ZM18.0683 60.1854H41.4884V51.7522H4.45292V60.1851L7.01097 60.1854C7.36813 57.2313 9.71148 54.9421 12.5399 54.9421C15.3683 54.9421 17.7112 57.2313 18.0683 60.1854Z" fill="#7DA543"/>
<path fill-rule="evenodd" clip-rule="evenodd" d="M39.0158 58.2973C38.0047 58.2973 38.2892 56.6921 38.2892 55.2117H17.8441C16.8878 55.2117 16.8878 53.6404 17.8441 53.6404H39.0158C39.4168 53.6404 39.7423 53.9929 39.7423 54.4261V57.5118C39.7429 57.9448 39.4168 58.2973 39.0158 58.2973Z" fill="#7DA543"/>
<path fill-rule="evenodd" clip-rule="evenodd" d="M12.5402 67C9.46592 67 6.96438 64.2952 6.96438 60.9712C6.96438 57.6466 9.46562 54.9421 12.5399 54.9421C15.6141 54.9421 18.116 57.6466 18.116 60.9712C18.116 64.2952 15.6144 67 12.5402 67ZM12.54 56.5137C10.2671 56.5137 8.41733 58.5131 8.41733 60.9714C8.41733 63.429 10.2672 65.4282 12.5402 65.4282C14.8132 65.4282 16.6627 63.429 16.6627 60.9714C16.6627 58.5131 14.813 56.5137 12.54 56.5137Z" fill="#7DA543"/>
<path fill-rule="evenodd" clip-rule="evenodd" d="M12.5402 64.0365C8.8088 64.0365 8.8088 57.9056 12.5402 57.9056C16.2711 57.9056 16.2704 64.0365 12.5402 64.0365ZM12.5402 59.4774C10.7215 59.4774 10.7215 62.4647 12.5402 62.4647C14.3583 62.4647 14.3583 59.4774 12.5402 59.4774Z" fill="#7DA543"/>
<path fill-rule="evenodd" clip-rule="evenodd" d="M3.72662 54.0524C3.32569 54.0524 3.00014 53.6999 3.00014 53.2667V42.9652C3.00014 41.931 4.45324 41.931 4.45324 42.9652V53.2664C4.45324 53.6999 4.12769 54.0524 3.72662 54.0524Z" fill="#7DA543"/>
<path fill-rule="evenodd" clip-rule="evenodd" d="M48.4267 49.1739H45.8672C44.9106 49.1739 44.911 47.6027 45.8672 47.6027H48.4267C49.383 47.6027 49.383 49.1739 48.4267 49.1739Z" fill="#7DA543"/>
<path fill-rule="evenodd" clip-rule="evenodd" d="M31.9071 51.6289H11.6566C10.0651 51.6289 10.9997 46.9954 14.0774 47.596C14.7622 45.7396 16.6972 44.7996 18.4468 45.4957C19.9473 43.8875 22.4026 44.1219 23.6382 45.9645C25.0399 44.8552 26.9978 45.0502 28.1767 46.4374C30.8569 45.3819 33.5008 48.1603 32.5961 51.0914C32.497 51.4123 32.2193 51.6289 31.9071 51.6289ZM12.4142 50.0572H31.3148C31.4084 48.3055 29.6668 47.2225 28.3313 48.0904C27.3082 48.7554 27.3628 46.8194 25.6617 46.8194C24.1169 46.8194 24.2063 48.2121 23.3297 48.0644C22.4298 47.913 22.7782 45.9925 20.8589 45.9925C19.2458 45.9925 19.2398 47.7647 18.2683 47.1377C17.059 46.357 15.4737 47.1725 15.3025 48.7101C15.1699 49.9 13.9411 49.1227 13.6031 49.1224C13.0478 49.1221 12.5767 49.5148 12.4142 50.0572Z" fill="#7DA543"/>
<path fill-rule="evenodd" clip-rule="evenodd" d="M28.294 27.881C25.7537 27.881 23.9955 24.8107 25.8776 21.7311C27.4771 19.1137 31.273 17.9882 31.9137 19.0779C33.5174 21.8061 31.9881 27.881 28.294 27.881ZM30.8435 20.2465C28.7373 20.2577 25.6606 23.1162 26.7541 25.3157C27.4126 26.64 29.1721 26.7732 30.3157 24.9011C31.015 23.7571 31.3551 21.5552 30.8435 20.2465Z" fill="#7DA543"/>
<path fill-rule="evenodd" clip-rule="evenodd" d="M26.9282 27.4378C26.3553 27.4378 26.0021 26.744 26.3225 26.2191L29.0598 21.7395C29.5876 20.8771 30.8001 21.742 30.2729 22.6057L27.5355 27.0853C27.3955 27.3141 27.1637 27.4378 26.9282 27.4378Z" fill="#7DA543"/>
<path fill-rule="evenodd" clip-rule="evenodd" d="M22.0738 46.3045C21.6699 46.3045 21.3431 45.9482 21.3466 45.5119C21.3785 41.7689 21.9288 32.392 26.3523 26.1738C26.9333 25.3565 28.0858 26.3149 27.5049 27.1318C23.3489 32.9736 22.8301 41.9412 22.8003 45.5255C22.7963 45.957 22.4719 46.3045 22.0738 46.3045Z" fill="#7DA543"/>
<path fill-rule="evenodd" clip-rule="evenodd" d="M23.2071 36.3106C22.5963 36.3106 18.2407 33.575 18.1302 26.369C18.1143 25.3328 19.5674 25.3094 19.5834 26.3428C19.684 32.7329 23.3656 34.7345 23.5219 34.8169C24.2172 35.1826 23.9706 36.3106 23.2071 36.3106Z" fill="#7DA543"/>
<path fill-rule="evenodd" clip-rule="evenodd" d="M22.5889 39.6052C21.98 39.6052 21.6361 38.831 22.0303 38.3177C24.5901 34.9844 31.507 31.9566 31.6619 34.1933C31.6918 34.6259 31.3914 35.0028 30.9913 35.0351C26.1936 35.4213 23.1789 39.2822 23.1491 39.3211C23.0047 39.5087 22.7978 39.6052 22.5889 39.6052Z" fill="#7DA543"/>
<path fill-rule="evenodd" clip-rule="evenodd" d="M34.116 37.9139C28.8677 37.9139 28.8677 30.5903 34.116 30.5903C36.8162 30.5903 40.03 33.2663 39.49 34.5733C38.5994 36.7241 35.7471 37.9139 34.116 37.9139ZM34.116 32.1618C30.7813 32.1618 30.782 36.3429 34.116 36.3429C35.3846 36.3429 37.2709 35.4351 37.9985 34.2523C37.2711 33.069 35.3846 32.1618 34.116 32.1618Z" fill="#7DA543"/>
<path fill-rule="evenodd" clip-rule="evenodd" d="M35.8633 35.0378H30.8974C29.9408 35.0378 29.9408 33.4667 30.8974 33.4667H35.8633C36.8199 33.4667 36.8199 35.0378 35.8633 35.0378Z" fill="#7DA543"/>
<path fill-rule="evenodd" clip-rule="evenodd" d="M22.1082 44.8746C21.8392 44.8746 21.5808 44.7125 21.4548 44.4336C21.4326 44.384 19.1918 39.4926 16.276 38.7573C15.3439 38.5217 15.676 36.9926 16.6062 37.2276C20.1959 38.1331 22.6577 43.5165 22.7607 43.7452C22.9967 44.2697 22.6341 44.8746 22.1082 44.8746Z" fill="#7DA543"/>
<path fill-rule="evenodd" clip-rule="evenodd" d="M13.9939 40.4547C10.3067 40.4547 7.54154 35.2187 8.6253 34.1183C11.3137 31.3883 18.1522 33.0208 17.296 37.6437C16.9893 39.2985 15.631 40.4547 13.9939 40.4547ZM9.88718 35.0363C10.1858 36.6981 12.1464 38.8836 13.9937 38.8836C16.701 38.8836 16.8227 34.3821 12.3472 34.3821C11.3526 34.3821 10.4639 34.6222 9.88718 35.0363Z" fill="#7DA543"/>
<path fill-rule="evenodd" clip-rule="evenodd" d="M16.4404 38.7787C16.1132 38.7787 12.2044 36.9329 11.5778 36.65C10.698 36.2527 11.259 34.8028 12.138 35.1999L16.7208 37.268C17.4512 37.5979 17.2275 38.7787 16.4404 38.7787Z" fill="#7DA543"/>
<path fill-rule="evenodd" clip-rule="evenodd" d="M18.8567 27.1417C17.174 27.1417 15.4701 25.6763 15.4701 22.8759C15.4701 19.9539 17.9468 16.4809 19.1537 17.0649C21.1434 18.0284 22.2432 21.1122 22.2432 22.8759C22.2433 25.6763 20.5395 27.1417 18.8567 27.1417ZM18.8567 18.6775C16.5612 20.3283 16.08 25.5699 18.8567 25.5699C21.6321 25.5699 21.1531 20.3289 18.8567 18.6775Z" fill="#7DA543"/>
<path fill-rule="evenodd" clip-rule="evenodd" d="M18.8567 27.1417C18.4556 27.1417 18.1302 26.7897 18.1302 26.356V20.9868C18.1302 19.9526 19.5833 19.9526 19.5833 20.9868V26.356C19.5833 26.7897 19.2583 27.1417 18.8567 27.1417Z" fill="#7DA543"/>
<path fill-rule="evenodd" clip-rule="evenodd" d="M51.1838 46.1224C46.8786 46.1224 47.484 46.7633 47.484 42.5579C47.484 39.4085 51.911 39.4085 51.911 42.5579V45.3369C51.9104 45.7699 51.585 46.1224 51.1838 46.1224ZM48.9373 44.5506H50.4569C50.4569 43.2497 50.7207 41.7362 49.697 41.7362C48.6733 41.7362 48.937 43.2509 48.9373 44.5506Z" fill="#7DA543"/>
</svg>
