<svg width="69" height="69" viewBox="0 0 69 69" fill="none" xmlns="http://www.w3.org/2000/svg">
<path d="M15.881 37.231L15.881 37.231C16.081 36.8845 16.5239 36.7656 16.8708 36.9658C17.2173 37.1659 17.3361 37.6091 17.136 37.9556L12.6534 45.7197C12.6534 45.7197 12.6534 45.7197 12.6534 45.7197C12.5192 45.9519 12.2758 46.0821 12.0251 46.0821C11.9024 46.0821 11.7779 46.0508 11.6636 45.9849C11.317 45.7848 11.1983 45.3416 11.3984 44.9951L11.3118 44.9451L11.3984 44.9951L15.881 37.231Z" fill="#7DA543" stroke="white" stroke-width="0.2"/>
<mask id="path-2-inside-1_111_333" fill="white">
<path d="M62.9719 29.4032C62.9719 28.9063 62.7151 28.4614 62.2848 28.2129C61.8549 27.9646 61.341 27.9645 60.9104 28.2129L55.394 31.3978C54.9996 31.6255 54.8645 32.1298 55.0922 32.5242C55.32 32.9187 55.8245 33.0538 56.2186 32.826L61.3227 29.8791L61.3229 46.2138L56.677 48.896L49.6038 36.645L52.7241 34.8435C53.1185 34.6158 53.2536 34.1115 53.0259 33.7171C52.7982 33.3227 52.2936 33.1876 51.8995 33.4153C50.0854 34.4627 45.182 37.2937 43.7482 38.1214C42.6037 38.7822 41.3005 39.1314 39.9776 39.1314H30.7441C30.0018 39.1314 29.3116 39.359 28.7397 39.7479C28.6822 39.722 28.626 39.6933 28.5715 39.6618C28.1825 39.4372 9.31004 28.5412 8.74129 28.2128C8.31096 27.9643 7.79707 27.9644 7.36696 28.2128C6.93663 28.4613 6.6798 28.9062 6.6798 29.4031L6.67969 46.3727C6.67969 46.8622 6.94301 47.3182 7.36685 47.5628L12.3882 50.4619C13.0498 50.8438 13.8897 50.6098 14.2655 49.9589L14.6457 49.3004L16.9226 50.6149L16.6684 50.7617C15.0514 51.6953 14.4954 53.7703 15.4291 55.387C15.9399 56.2718 16.7924 56.8388 17.7245 57.018C17.6977 57.0954 17.6735 57.1741 17.6521 57.254C17.418 58.1277 17.5382 59.0402 17.9904 59.8235C18.6169 60.9085 19.7573 61.5158 20.9285 61.5158C21.1484 61.5158 21.3695 61.4943 21.5884 61.4507C21.5361 62.1101 21.6757 62.7912 22.0307 63.4062C22.9662 65.0263 25.0347 65.5817 26.656 64.6455L27.0972 64.3907C27.0872 64.9832 27.2324 65.5855 27.5496 66.135C28.4848 67.7552 30.5537 68.3105 32.175 67.3744L33.6537 66.5206C34.0217 66.3082 34.3405 66.0343 34.5993 65.7132L37.4766 67.3744C39.1071 68.3156 41.1762 67.7384 42.1019 66.135C42.4126 65.5968 42.5666 64.9976 42.5566 64.3919L42.9956 64.6455C44.6161 65.5812 46.6851 65.027 47.6209 63.4062C47.9678 62.8053 48.1193 62.1284 48.0655 61.4512C49.4488 61.7262 50.9173 61.1116 51.6611 59.8236C52.1634 58.9538 52.2469 57.941 51.927 57.0181C52.8592 56.8388 53.7117 56.2717 54.2225 55.387C55.156 53.7702 54.6001 51.6953 52.9827 50.7614L52.7287 50.615L55.0058 49.3003L55.386 49.9589C55.7637 50.6131 56.6054 50.842 57.2633 50.4619L62.2847 47.5628C62.7085 47.3181 62.9718 46.862 62.9718 46.3727L62.9719 29.4032ZM16.8573 54.5624C16.3774 53.731 16.6616 52.6699 17.493 52.1899L19.4311 51.071C20.2657 50.5891 21.3278 50.8827 21.8036 51.7067C22.2823 52.5361 21.9973 53.6004 21.1679 54.0792L19.2298 55.1983C18.4007 55.6768 17.3362 55.3919 16.8573 54.5624ZM19.4187 58.999C18.9388 58.1676 19.223 57.1065 20.0544 56.6265L24.4743 54.0746C25.3074 53.5937 26.3678 53.8806 26.8468 54.7103C27.324 55.5368 27.046 56.5953 26.2186 57.0784L21.7911 59.6347C20.9621 60.1135 19.8976 59.8284 19.4187 58.999ZM25.8314 63.2174C24.9982 63.6982 23.9381 63.4114 23.4589 62.5817C22.9807 61.7532 23.2646 60.6905 24.0917 60.2109L28.1183 57.8861C28.9477 57.4074 30.012 57.6926 30.4908 58.5218C30.9705 59.3528 30.6868 60.4137 29.8556 60.894C29.3926 61.1613 26.7912 62.6631 25.8314 63.2174ZM32.8292 65.0924L31.3505 65.9462C30.5193 66.426 29.4579 66.1419 28.9779 65.3105C28.4991 64.4812 28.7842 63.4168 29.6137 62.938C30.3054 62.5386 31.0924 62.0842 31.0924 62.0842C31.9268 61.6024 32.989 61.8956 33.465 62.7199C33.9475 63.5557 33.6557 64.6152 32.8292 65.0924ZM52.7946 54.5624C52.3157 55.3919 51.2514 55.6771 50.422 55.1981L42.7992 50.7971C42.4044 50.5693 41.9003 50.7044 41.6728 51.0989C41.4451 51.4933 41.5802 51.9976 41.9746 52.2253L49.5974 56.6263C50.4287 57.1064 50.7132 58.1675 50.2332 58.9989C49.7543 59.8282 48.6902 60.1135 47.8606 59.6346C45.8845 58.4937 41.2763 55.8331 39.727 54.9387C39.3323 54.7109 38.8281 54.846 38.6006 55.2405C38.3729 55.6348 38.5081 56.1392 38.9024 56.3669L45.5571 60.2089L45.5579 60.2094C45.9592 60.4414 46.2464 60.8157 46.3665 61.2635C46.4865 61.7117 46.4248 62.1797 46.193 62.5815C45.7129 63.4128 44.6519 63.6973 43.8204 63.2172L37.2551 59.4267C36.8605 59.1989 36.3563 59.334 36.1287 59.7285C35.901 60.1228 36.0361 60.6272 36.4305 60.8549L40.0381 62.9377L40.0405 62.9391C40.8671 63.4181 41.1548 64.4771 40.6738 65.3102C40.195 66.1394 39.1307 66.4247 38.3013 65.9459L35.2899 64.2072C35.4389 63.4135 35.3013 62.6017 34.8932 61.895C34.323 60.9074 33.3271 60.3158 32.2699 60.2173C32.4868 59.3586 32.3627 58.4654 31.919 57.6968C31.2425 56.5252 29.967 55.9108 28.7008 56.0161C28.7982 55.2809 28.652 54.5382 28.275 53.8854C27.8229 53.102 27.0926 52.5417 26.2191 52.3077C25.358 52.0769 24.4596 52.1904 23.6843 52.6263C23.6943 52.0337 23.5491 51.4313 23.2318 50.8817C22.2984 49.2648 20.2235 48.7087 18.6065 49.6424L18.5719 49.6624L15.4704 47.8717L16.5102 46.0708C16.7379 45.6764 16.6028 45.1721 16.2084 44.9444C15.8138 44.7166 15.3096 44.8518 15.082 45.2462L12.9749 48.8957L8.32899 46.2135L8.3291 29.8788L20.048 36.6448L16.9849 41.9502C16.7572 42.3446 16.8924 42.8489 17.2867 43.0766C17.6812 43.3043 18.1855 43.1692 18.4131 42.7748L21.4762 37.4693L27.6012 41.0057C27.3269 41.5112 27.171 42.0899 27.171 42.7044V47.944C27.171 48.7019 27.7875 49.3183 28.5453 49.3183H29.2703C31.3996 49.3183 33.2204 47.8941 33.7723 45.9032H34.2461C34.7548 45.9032 35.2163 46.1762 35.4504 46.6158C36.3723 48.3472 38.2366 49.4046 40.1961 49.3124C41.415 49.2545 42.5767 48.7533 43.4674 47.9011C43.7484 47.6322 44.1524 47.5751 44.4724 47.7596C51.5438 51.835 50.0087 50.9504 52.159 52.1896C52.9882 52.6688 53.2733 53.7331 52.7946 54.5624ZM51.0783 49.6638L45.2958 46.3312C45.1022 46.2197 44.8992 46.1368 44.6918 46.082C45.0533 45.1617 45.1414 44.1408 44.9221 43.1302C44.8256 42.6852 44.3863 42.4026 43.9415 42.4992C43.4964 42.5957 43.2139 43.0348 43.3105 43.4798C43.5677 44.6655 43.2011 45.8718 42.3299 46.7071C42.3289 46.708 42.328 46.709 42.327 46.7099C41.724 47.2871 40.9394 47.6263 40.1177 47.6653C38.773 47.7305 37.5393 47.0304 36.9059 45.8409C36.3848 44.8621 35.3655 44.2541 34.246 44.2541H33.9429V43.3711C33.9429 42.9157 33.5738 42.5465 33.1183 42.5465C32.6628 42.5465 32.2937 42.9157 32.2937 43.3711C32.2886 44.5923 32.3062 44.7007 32.2754 44.9813C32.2752 44.9833 32.2749 44.9851 32.2747 44.9871C32.1035 46.5163 30.8118 47.6694 29.2702 47.6694H28.8201V42.7048C28.8201 41.6439 29.6833 40.7807 30.7441 40.7807H39.9789C41.5895 40.7807 43.1779 40.3552 44.5728 39.5499L48.1756 37.4698L54.1814 47.8721L51.0783 49.6638Z"/>
</mask>
<path d="M62.9719 29.4032C62.9719 28.9063 62.7151 28.4614 62.2848 28.2129C61.8549 27.9646 61.341 27.9645 60.9104 28.2129L55.394 31.3978C54.9996 31.6255 54.8645 32.1298 55.0922 32.5242C55.32 32.9187 55.8245 33.0538 56.2186 32.826L61.3227 29.8791L61.3229 46.2138L56.677 48.896L49.6038 36.645L52.7241 34.8435C53.1185 34.6158 53.2536 34.1115 53.0259 33.7171C52.7982 33.3227 52.2936 33.1876 51.8995 33.4153C50.0854 34.4627 45.182 37.2937 43.7482 38.1214C42.6037 38.7822 41.3005 39.1314 39.9776 39.1314H30.7441C30.0018 39.1314 29.3116 39.359 28.7397 39.7479C28.6822 39.722 28.626 39.6933 28.5715 39.6618C28.1825 39.4372 9.31004 28.5412 8.74129 28.2128C8.31096 27.9643 7.79707 27.9644 7.36696 28.2128C6.93663 28.4613 6.6798 28.9062 6.6798 29.4031L6.67969 46.3727C6.67969 46.8622 6.94301 47.3182 7.36685 47.5628L12.3882 50.4619C13.0498 50.8438 13.8897 50.6098 14.2655 49.9589L14.6457 49.3004L16.9226 50.6149L16.6684 50.7617C15.0514 51.6953 14.4954 53.7703 15.4291 55.387C15.9399 56.2718 16.7924 56.8388 17.7245 57.018C17.6977 57.0954 17.6735 57.1741 17.6521 57.254C17.418 58.1277 17.5382 59.0402 17.9904 59.8235C18.6169 60.9085 19.7573 61.5158 20.9285 61.5158C21.1484 61.5158 21.3695 61.4943 21.5884 61.4507C21.5361 62.1101 21.6757 62.7912 22.0307 63.4062C22.9662 65.0263 25.0347 65.5817 26.656 64.6455L27.0972 64.3907C27.0872 64.9832 27.2324 65.5855 27.5496 66.135C28.4848 67.7552 30.5537 68.3105 32.175 67.3744L33.6537 66.5206C34.0217 66.3082 34.3405 66.0343 34.5993 65.7132L37.4766 67.3744C39.1071 68.3156 41.1762 67.7384 42.1019 66.135C42.4126 65.5968 42.5666 64.9976 42.5566 64.3919L42.9956 64.6455C44.6161 65.5812 46.6851 65.027 47.6209 63.4062C47.9678 62.8053 48.1193 62.1284 48.0655 61.4512C49.4488 61.7262 50.9173 61.1116 51.6611 59.8236C52.1634 58.9538 52.2469 57.941 51.927 57.0181C52.8592 56.8388 53.7117 56.2717 54.2225 55.387C55.156 53.7702 54.6001 51.6953 52.9827 50.7614L52.7287 50.615L55.0058 49.3003L55.386 49.9589C55.7637 50.6131 56.6054 50.842 57.2633 50.4619L62.2847 47.5628C62.7085 47.3181 62.9718 46.862 62.9718 46.3727L62.9719 29.4032ZM16.8573 54.5624C16.3774 53.731 16.6616 52.6699 17.493 52.1899L19.4311 51.071C20.2657 50.5891 21.3278 50.8827 21.8036 51.7067C22.2823 52.5361 21.9973 53.6004 21.1679 54.0792L19.2298 55.1983C18.4007 55.6768 17.3362 55.3919 16.8573 54.5624ZM19.4187 58.999C18.9388 58.1676 19.223 57.1065 20.0544 56.6265L24.4743 54.0746C25.3074 53.5937 26.3678 53.8806 26.8468 54.7103C27.324 55.5368 27.046 56.5953 26.2186 57.0784L21.7911 59.6347C20.9621 60.1135 19.8976 59.8284 19.4187 58.999ZM25.8314 63.2174C24.9982 63.6982 23.9381 63.4114 23.4589 62.5817C22.9807 61.7532 23.2646 60.6905 24.0917 60.2109L28.1183 57.8861C28.9477 57.4074 30.012 57.6926 30.4908 58.5218C30.9705 59.3528 30.6868 60.4137 29.8556 60.894C29.3926 61.1613 26.7912 62.6631 25.8314 63.2174ZM32.8292 65.0924L31.3505 65.9462C30.5193 66.426 29.4579 66.1419 28.9779 65.3105C28.4991 64.4812 28.7842 63.4168 29.6137 62.938C30.3054 62.5386 31.0924 62.0842 31.0924 62.0842C31.9268 61.6024 32.989 61.8956 33.465 62.7199C33.9475 63.5557 33.6557 64.6152 32.8292 65.0924ZM52.7946 54.5624C52.3157 55.3919 51.2514 55.6771 50.422 55.1981L42.7992 50.7971C42.4044 50.5693 41.9003 50.7044 41.6728 51.0989C41.4451 51.4933 41.5802 51.9976 41.9746 52.2253L49.5974 56.6263C50.4287 57.1064 50.7132 58.1675 50.2332 58.9989C49.7543 59.8282 48.6902 60.1135 47.8606 59.6346C45.8845 58.4937 41.2763 55.8331 39.727 54.9387C39.3323 54.7109 38.8281 54.846 38.6006 55.2405C38.3729 55.6348 38.5081 56.1392 38.9024 56.3669L45.5571 60.2089L45.5579 60.2094C45.9592 60.4414 46.2464 60.8157 46.3665 61.2635C46.4865 61.7117 46.4248 62.1797 46.193 62.5815C45.7129 63.4128 44.6519 63.6973 43.8204 63.2172L37.2551 59.4267C36.8605 59.1989 36.3563 59.334 36.1287 59.7285C35.901 60.1228 36.0361 60.6272 36.4305 60.8549L40.0381 62.9377L40.0405 62.9391C40.8671 63.4181 41.1548 64.4771 40.6738 65.3102C40.195 66.1394 39.1307 66.4247 38.3013 65.9459L35.2899 64.2072C35.4389 63.4135 35.3013 62.6017 34.8932 61.895C34.323 60.9074 33.3271 60.3158 32.2699 60.2173C32.4868 59.3586 32.3627 58.4654 31.919 57.6968C31.2425 56.5252 29.967 55.9108 28.7008 56.0161C28.7982 55.2809 28.652 54.5382 28.275 53.8854C27.8229 53.102 27.0926 52.5417 26.2191 52.3077C25.358 52.0769 24.4596 52.1904 23.6843 52.6263C23.6943 52.0337 23.5491 51.4313 23.2318 50.8817C22.2984 49.2648 20.2235 48.7087 18.6065 49.6424L18.5719 49.6624L15.4704 47.8717L16.5102 46.0708C16.7379 45.6764 16.6028 45.1721 16.2084 44.9444C15.8138 44.7166 15.3096 44.8518 15.082 45.2462L12.9749 48.8957L8.32899 46.2135L8.3291 29.8788L20.048 36.6448L16.9849 41.9502C16.7572 42.3446 16.8924 42.8489 17.2867 43.0766C17.6812 43.3043 18.1855 43.1692 18.4131 42.7748L21.4762 37.4693L27.6012 41.0057C27.3269 41.5112 27.171 42.0899 27.171 42.7044V47.944C27.171 48.7019 27.7875 49.3183 28.5453 49.3183H29.2703C31.3996 49.3183 33.2204 47.8941 33.7723 45.9032H34.2461C34.7548 45.9032 35.2163 46.1762 35.4504 46.6158C36.3723 48.3472 38.2366 49.4046 40.1961 49.3124C41.415 49.2545 42.5767 48.7533 43.4674 47.9011C43.7484 47.6322 44.1524 47.5751 44.4724 47.7596C51.5438 51.835 50.0087 50.9504 52.159 52.1896C52.9882 52.6688 53.2733 53.7331 52.7946 54.5624ZM51.0783 49.6638L45.2958 46.3312C45.1022 46.2197 44.8992 46.1368 44.6918 46.082C45.0533 45.1617 45.1414 44.1408 44.9221 43.1302C44.8256 42.6852 44.3863 42.4026 43.9415 42.4992C43.4964 42.5957 43.2139 43.0348 43.3105 43.4798C43.5677 44.6655 43.2011 45.8718 42.3299 46.7071C42.3289 46.708 42.328 46.709 42.327 46.7099C41.724 47.2871 40.9394 47.6263 40.1177 47.6653C38.773 47.7305 37.5393 47.0304 36.9059 45.8409C36.3848 44.8621 35.3655 44.2541 34.246 44.2541H33.9429V43.3711C33.9429 42.9157 33.5738 42.5465 33.1183 42.5465C32.6628 42.5465 32.2937 42.9157 32.2937 43.3711C32.2886 44.5923 32.3062 44.7007 32.2754 44.9813C32.2752 44.9833 32.2749 44.9851 32.2747 44.9871C32.1035 46.5163 30.8118 47.6694 29.2702 47.6694H28.8201V42.7048C28.8201 41.6439 29.6833 40.7807 30.7441 40.7807H39.9789C41.5895 40.7807 43.1779 40.3552 44.5728 39.5499L48.1756 37.4698L54.1814 47.8721L51.0783 49.6638Z" fill="#7DA543" stroke="white" stroke-width="0.4" mask="url(#path-2-inside-1_111_333)"/>
<path d="M56.9982 45.7197L56.9982 45.7197L52.5156 37.9556C52.3155 37.6091 52.4342 37.1659 52.7808 36.9658L52.7808 36.9658C53.1271 36.7657 53.5706 36.8844 53.7705 37.231L53.7706 37.231L58.2532 44.9951C58.4533 45.3416 58.3345 45.7848 57.988 45.9849L57.988 45.9849C57.643 46.1842 57.1991 46.0679 56.9982 45.7197Z" fill="#7DA543" stroke="white" stroke-width="0.2"/>
<path d="M40.674 14.9513V15.0513H40.774H45.1306C46.4191 15.0513 47.5043 16.0993 47.5043 17.4251V31.2027C47.5043 32.5116 46.4393 33.5765 45.1306 33.5765H31.2983C30.898 33.5765 30.5737 33.2521 30.5737 32.8519C30.5737 32.4517 30.898 32.1273 31.2983 32.1273H45.1306C45.6405 32.1273 46.0552 31.7127 46.0552 31.2027V17.8454V17.6056L45.8848 17.7743L38.1422 25.4406L38.1125 25.47V25.5117V26.3548C38.1125 27.512 37.1709 28.4537 36.0136 28.4537H33.6396C32.4823 28.4537 31.5406 27.512 31.5406 26.3548V25.5117V25.47L31.511 25.4406L23.7684 17.7743L23.598 17.6056V17.8454V31.2026C23.598 31.7126 24.0126 32.1272 24.5226 32.1272H27.3403C27.7406 32.1272 28.0649 32.4516 28.0649 32.8518C28.0649 33.252 27.7406 33.5764 27.3403 33.5764H24.5226C23.2138 33.5764 22.1488 32.5115 22.1488 31.2026V17.4251C22.1488 16.1003 23.2329 15.0513 24.5226 15.0513H28.8792H28.9792V14.9513V12.9105C28.9792 12.2078 29.5509 11.6361 30.2535 11.6361H39.3996C40.1023 11.6361 40.674 12.2078 40.674 12.9105V14.9513ZM30.5284 13.0853H30.4284V13.1853V14.9513V15.0513H30.5284H39.1248H39.2248V14.9513V13.1853V13.0853H39.1248H30.5284ZM38.0091 23.3293L38.0595 23.4831L38.1745 23.3692L44.9387 16.6716L45.1115 16.5006H44.8683H24.7847H24.5416L24.7144 16.6716L31.4786 23.3692L31.5936 23.4831L31.644 23.3293C31.9188 22.4897 32.7097 21.8818 33.6394 21.8818H36.0136C36.9433 21.8818 37.7343 22.4897 38.0091 23.3293ZM36.0136 27.0045C36.372 27.0045 36.6633 26.7131 36.6633 26.3548V23.9806C36.6633 23.6222 36.372 23.3309 36.0136 23.3309H33.6394C33.2811 23.3309 32.9897 23.6222 32.9897 23.9806V26.3548C32.9897 26.7131 33.2811 27.0045 33.6394 27.0045H36.0136Z" fill="#7DA543" stroke="white" stroke-width="0.2"/>
</svg>
