<svg width="69" height="69" viewBox="0 0 69 69" fill="none" xmlns="http://www.w3.org/2000/svg">
<g clip-path="url(#clip0_111_382)">
<path d="M58.8304 31.8274C58.7195 31.8274 58.6087 31.8307 58.498 31.8372C57.893 29.8637 55.9053 28.4492 53.5939 28.4492C53.4244 28.4492 53.253 28.4568 53.0867 28.4718C52.8972 28.4889 52.7221 28.5806 52.6002 28.7267C52.4782 28.8728 52.4193 29.0614 52.4364 29.251C52.4534 29.4406 52.5451 29.6156 52.6913 29.7376C52.8374 29.8595 53.026 29.9185 53.2156 29.9014C53.3399 29.8903 53.4667 29.8845 53.5939 29.8845C55.4514 29.8845 57.0132 31.1045 57.2265 32.7207C57.2392 32.8173 57.2715 32.9104 57.3214 32.9941C57.3712 33.0779 57.4376 33.1506 57.5166 33.2079C57.5955 33.2651 57.6852 33.3057 57.7803 33.3271C57.8754 33.3485 57.9739 33.3503 58.0697 33.3324C58.3209 33.286 58.5757 33.2626 58.8311 33.2627C60.8483 33.2627 62.4892 34.7019 62.4892 36.4711C62.4812 36.9252 62.372 37.3719 62.1695 37.7785C61.967 38.1851 61.6764 38.5414 61.3187 38.8214C61.2416 38.8842 61.1784 38.9624 61.1332 39.0509C61.0879 39.1395 61.0615 39.2364 61.0557 39.3357C61.0499 39.435 61.0648 39.5344 61.0995 39.6276C61.1341 39.7208 61.1877 39.8058 61.257 39.8772C61.9108 40.5326 62.2823 41.4178 62.292 42.3436C62.292 44.4411 60.3534 46.1471 57.9703 46.1471C57.8688 46.1471 57.7613 46.143 57.6325 46.1342C57.4746 46.1233 57.3175 46.165 57.1858 46.2528C56.1199 46.9535 54.8702 47.3225 53.5947 47.3133C52.0282 47.3308 50.5106 46.7684 49.3338 45.7345C49.2637 45.6715 49.1818 45.623 49.0929 45.5917C49.004 45.5603 48.9098 45.5468 48.8157 45.5519C48.7216 45.557 48.6294 45.5806 48.5444 45.6213C48.4594 45.662 48.3833 45.719 48.3203 45.7892C48.2573 45.8593 48.2088 45.9412 48.1775 46.0301C48.1462 46.119 48.1327 46.2132 48.1378 46.3073C48.1428 46.4014 48.1664 46.4936 48.2071 46.5786C48.2478 46.6636 48.3049 46.7397 48.375 46.8027C49.4192 47.7308 50.6981 48.3545 52.0723 48.6058V54.5411C52.0732 54.9632 51.919 55.3709 51.6391 55.6868C51.2256 56.1213 50.9229 56.649 50.7564 57.2253C50.7299 57.331 50.728 57.4414 50.7506 57.5481C50.7733 57.6547 50.8199 57.7548 50.887 57.8408C50.9541 57.9267 51.0399 57.9962 51.1379 58.044C51.2359 58.0919 51.3434 58.1167 51.4525 58.1168H56.9245C57.0353 58.1168 57.1446 58.0911 57.2438 58.0419C57.343 57.9926 57.4294 57.921 57.4964 57.8328C57.5633 57.7445 57.6089 57.642 57.6296 57.5331C57.6503 57.4243 57.6455 57.3122 57.6156 57.2055C57.4522 56.6262 57.1953 56.0773 56.8553 55.5806C56.6489 55.2935 56.541 54.9473 56.5479 54.5938V50.1381C56.5479 49.9478 56.4723 49.7653 56.3378 49.6307C56.2032 49.4961 56.0206 49.4205 55.8303 49.4205C55.64 49.4205 55.4574 49.4961 55.3228 49.6307C55.1883 49.7653 55.1127 49.9478 55.1127 50.1381V54.5958C55.1062 55.2621 55.3164 55.9125 55.7115 56.4491C55.7668 56.5233 55.8169 56.6012 55.8613 56.6824H52.6746L52.7105 56.6416C53.2241 56.0631 53.5074 55.3161 53.5066 54.5425V48.7475C53.5356 48.7475 53.5645 48.7495 53.5936 48.7495C55.0694 48.7577 56.518 48.3525 57.7755 47.5799C57.8428 47.5822 57.9072 47.5833 57.9692 47.5833C61.1438 47.5833 63.7262 45.233 63.7262 42.3445C63.7223 41.2947 63.3817 40.2739 62.7545 39.4321C63.4991 38.6253 63.9159 37.5697 63.9234 36.4718C63.9237 33.9105 61.6389 31.8274 58.8304 31.8274Z" fill="#7DA543"/>
<path d="M46.4396 27.0112C46.32 27.0112 46.2004 27.0152 46.0808 27.0233C45.8366 26.1009 45.3492 25.261 44.6694 24.5914C43.9896 23.9219 43.1424 23.4473 42.2164 23.2172C42.0319 23.1731 41.8374 23.2038 41.6755 23.3026C41.5135 23.4015 41.3973 23.5604 41.3523 23.7447C41.3072 23.929 41.337 24.1236 41.435 24.2861C41.5331 24.4485 41.6915 24.5655 41.8755 24.6114C42.6385 24.8008 43.3259 25.2175 43.8467 25.8064C44.3674 26.3953 44.697 27.1284 44.7917 27.9088C44.8034 28.0077 44.8355 28.103 44.8859 28.1887C44.9364 28.2745 45.0042 28.3488 45.085 28.407C45.1657 28.4651 45.2577 28.5058 45.355 28.5266C45.4523 28.5473 45.5529 28.5475 45.6503 28.5273C46.4815 28.3541 47.3465 28.4591 48.112 28.8262C48.8775 29.1932 49.501 29.8018 49.8864 30.5583C50.2719 31.3147 50.3978 32.1769 50.2447 33.012C50.0917 33.847 49.6682 34.6085 49.0396 35.1791C48.9007 35.3053 48.8168 35.4809 48.8058 35.6682C48.7948 35.8556 48.8576 36.0398 48.9808 36.1813C49.5556 36.8418 49.9282 37.6537 50.0542 38.5202C50.1801 39.3866 50.0541 40.271 49.6911 41.0678C49.3281 41.8646 48.7435 42.5401 48.007 43.0136C47.2706 43.4872 46.4134 43.7388 45.5379 43.7385C45.4336 43.7385 45.3188 43.7337 45.1869 43.7236C45.0147 43.7104 44.8434 43.7598 44.7047 43.8627C43.5468 44.7199 42.1303 45.1549 40.6909 45.0954C39.2515 45.0359 37.8758 44.4854 36.7926 43.5356C36.6495 43.41 36.4625 43.3465 36.2725 43.3589C36.0826 43.3712 35.9054 43.4586 35.7798 43.6016C35.6543 43.7447 35.5907 43.9318 35.6031 44.1217C35.6155 44.3116 35.7028 44.4889 35.8458 44.6144C36.6015 45.2769 37.479 45.7856 38.4294 46.1123V58.42C38.4307 58.9835 38.2247 59.5279 37.8506 59.9494C37.358 60.4663 36.9966 61.0939 36.7971 61.7794C36.7706 61.8852 36.7686 61.9957 36.7912 62.1024C36.8138 62.2091 36.8604 62.3092 36.9276 62.3952C36.9947 62.4812 37.0805 62.5507 37.1785 62.5986C37.2765 62.6464 37.3841 62.6713 37.4932 62.6713H44.2594C44.3701 62.6713 44.4794 62.6456 44.5786 62.5963C44.6777 62.5471 44.7642 62.4755 44.8311 62.3872C44.898 62.299 44.9436 62.1964 44.9643 62.0876C44.9849 61.9788 44.9802 61.8667 44.9503 61.7601C44.9164 61.6384 44.6013 60.5501 44.0381 59.8073C43.7608 59.4231 43.6153 58.9593 43.6237 58.4854V48.3602C43.6237 48.1698 43.5481 47.9873 43.4135 47.8527C43.2789 47.7181 43.0964 47.6425 42.9061 47.6425C42.7157 47.6425 42.5332 47.7181 42.3986 47.8527C42.264 47.9873 42.1884 48.1698 42.1884 48.3602V58.4856C42.1805 59.2724 42.4283 60.0405 42.8944 60.6744C43.0218 60.8503 43.1314 61.0384 43.2215 61.236H38.6513C38.7328 61.1264 38.8234 61.0154 38.9233 60.903C39.5311 60.2187 39.8662 59.3349 39.8649 58.4196V46.4586C41.7881 46.7327 43.7441 46.2726 45.3435 45.17C45.4105 45.1726 45.4749 45.1738 45.5375 45.1738C46.6322 45.1741 47.706 44.8747 48.6427 44.3082C49.5794 43.7417 50.3431 42.9297 50.8512 41.9601C51.3593 40.9905 51.5924 39.9004 51.5251 38.8078C51.4579 37.7152 51.0929 36.6618 50.4697 35.7619C51.1287 34.9915 51.5531 34.0483 51.6926 33.0442C51.8321 32.04 51.6809 31.0169 51.2568 30.096C50.8327 29.1752 50.1535 28.3952 49.2997 27.8485C48.446 27.3017 47.4534 27.0112 46.4396 27.0112Z" fill="#7DA543"/>
<path d="M11.0016 41.754C11.9898 42.727 13.1596 43.4963 14.4445 44.0182V47.7655C14.4366 49.2759 14.9131 50.749 15.804 51.9687C16.6949 53.1884 17.9533 54.0905 19.3945 54.5424L19.4863 54.5708C19.922 54.6989 20.3046 54.9644 20.577 55.3278C20.8494 55.6912 20.997 56.1329 20.9977 56.587V64.2768C20.9887 64.9303 20.7415 65.5582 20.3025 66.0424C19.801 66.6166 19.4245 67.289 19.1971 68.0166C19.168 68.1231 19.1638 68.2348 19.1849 68.3432C19.206 68.4515 19.2519 68.5535 19.3188 68.6412C19.3857 68.729 19.472 68.8001 19.5709 68.8491C19.6699 68.898 19.7787 68.9235 19.8891 68.9236H29.3965C29.5057 68.9236 29.6135 68.8986 29.7117 68.8507C29.8098 68.8027 29.8958 68.7329 29.9629 68.6467C30.03 68.5605 30.0765 68.4601 30.0989 68.3532C30.1213 68.2463 30.1191 68.1356 30.0922 68.0297C29.9421 67.4377 29.5334 66.7078 28.8769 65.8605C28.5942 65.4929 28.4146 65.0566 28.3566 64.5965C27.6539 59.1366 27.8112 50.9813 27.9678 46.6044L27.9718 46.4951C27.9758 46.4007 27.9611 46.3064 27.9286 46.2177C27.8962 46.129 27.8464 46.0475 27.7824 45.9781C27.7183 45.9086 27.6412 45.8525 27.5554 45.8129C27.4696 45.7733 27.3768 45.751 27.2824 45.7474C27.188 45.7438 27.0938 45.7588 27.0052 45.7917C26.9166 45.8245 26.8354 45.8746 26.7661 45.9389C26.6969 46.0033 26.6411 46.0806 26.6019 46.1666C26.5627 46.2526 26.5408 46.3454 26.5376 46.4399L26.5336 46.5495V46.5513C26.3404 51.9516 26.2526 59.4966 26.933 64.7795C27.0235 65.493 27.3026 66.1694 27.7416 66.739C27.945 67.0017 28.1228 67.2545 28.2694 67.4879H21.0092C21.1191 67.3127 21.2428 67.1466 21.3793 66.9911C22.0497 66.2447 22.4245 65.2793 22.4333 64.2761V56.587C22.4338 55.8248 22.1877 55.0828 21.7317 54.4719C21.2758 53.861 20.6345 53.414 19.9036 53.1976L19.8245 53.1732C18.6753 52.8119 17.6721 52.0919 16.9621 51.1186C16.2522 50.1454 15.8728 48.9702 15.8798 47.7655V44.4836C17.4345 44.8648 19.0551 44.8921 20.6218 44.5634V49.3275C20.0028 49.1173 19.4657 48.7174 19.0869 48.1846C18.7081 47.6518 18.5069 47.0132 18.5117 46.3595V46.2246C18.5117 46.0342 18.4361 45.8517 18.3016 45.7171C18.167 45.5825 17.9844 45.5069 17.7941 45.5069C17.6038 45.5069 17.4212 45.5825 17.2866 45.7171C17.1521 45.8517 17.0765 46.0342 17.0765 46.2246V46.3595C17.0681 47.4952 17.4866 48.5925 18.249 49.4343C19.0114 50.2761 20.0621 50.8008 21.1931 50.9047L21.2813 50.9122C21.3007 50.9138 21.3201 50.9147 21.3395 50.9147C21.5298 50.9147 21.7123 50.8391 21.8469 50.7046C21.9815 50.57 22.0571 50.3874 22.0571 50.1971V44.1529C22.6955 43.9208 23.3101 43.6276 23.8923 43.2775C25.4736 44.3116 27.3327 44.8385 29.2213 44.7879C31.11 44.7374 32.9383 44.1118 34.462 42.9946C35.9856 41.8775 37.1322 40.322 37.7484 38.536C38.3646 36.75 38.4212 34.8184 37.9106 32.9994C38.9271 31.8202 39.6306 30.4042 39.9563 28.8819C40.2821 27.3595 40.2196 25.7797 39.7747 24.2878C39.3297 22.7959 38.5166 21.4399 37.4102 20.3446C36.3038 19.2494 34.9396 18.4501 33.4433 18.0203C32.9293 15.6499 31.5777 13.5443 29.6366 12.09C27.6954 10.6357 25.2949 9.93022 22.8756 10.103C20.4562 10.2758 18.1803 11.3153 16.4655 13.0307C14.7508 14.7461 13.7121 17.0224 13.5402 19.4418V19.456C13.5402 19.456 13.5386 19.4649 13.5385 19.4698C13.5341 19.6117 13.5081 20.8855 13.9511 21.8448C14.0309 22.0177 14.176 22.1517 14.3546 22.2175C14.5333 22.2833 14.7307 22.2754 14.9035 22.1957C15.0763 22.1159 15.2104 21.9707 15.2762 21.7921C15.342 21.6135 15.3341 21.4161 15.2543 21.2433C15.0032 20.7004 14.9664 19.8388 14.973 19.5302C15.1257 17.4221 16.0456 15.443 17.5588 13.9673C19.072 12.4915 21.0735 11.6214 23.1848 11.5215C25.2961 11.4216 27.3708 12.0988 29.0165 13.4251C30.6623 14.7514 31.7649 16.6348 32.116 18.7191C32.1394 18.8589 32.2037 18.9887 32.3008 19.092C32.3978 19.1954 32.5233 19.2676 32.6614 19.2997C34.0055 19.6128 35.2432 20.2749 36.2495 21.2192C37.2559 22.1635 37.9953 23.3566 38.3932 24.6781C38.7911 25.9995 38.8333 27.4025 38.5156 28.7455C38.1979 30.0885 37.5315 31.3239 36.5837 32.327C36.4949 32.4211 36.4332 32.5375 36.4051 32.6638C36.377 32.7901 36.3836 32.9217 36.4242 33.0446C36.9464 34.6239 36.9533 36.3284 36.4437 37.9118C35.9342 39.4953 34.9347 40.8759 33.5894 41.8543C32.2442 42.8327 30.6228 43.3583 28.9594 43.3552C27.296 43.3521 25.6765 42.8206 24.3349 41.8372C24.2162 41.7502 24.0735 41.7017 23.9263 41.6985C23.779 41.6953 23.6344 41.7375 23.512 41.8193C22.1436 42.73 20.5557 43.2562 18.9143 43.3429C17.2728 43.4295 15.6383 43.0734 14.1817 42.3119C12.7251 41.5503 11.4999 40.4112 10.6344 39.0139C9.76886 37.6165 9.2948 36.0122 9.26181 34.3689C9.25992 34.2726 9.23865 34.1776 9.19929 34.0897C9.15993 34.0018 9.10328 33.9227 9.0327 33.8572C8.0333 32.93 7.29166 31.7593 6.88033 30.4596C6.46899 29.1599 6.40204 27.7757 6.68603 26.4423C6.97002 25.109 7.59522 23.8722 8.50048 22.8529C9.40575 21.8336 10.5601 21.0668 11.8505 20.6273C12.0307 20.5661 12.1792 20.4357 12.2633 20.2649C12.3474 20.0942 12.3602 19.897 12.2989 19.7168C12.2376 19.5366 12.1072 19.3882 11.9365 19.3041C11.7657 19.22 11.5686 19.2072 11.3884 19.2685C9.88709 19.7796 8.54124 20.6658 7.47842 21.8429C6.41561 23.02 5.67105 24.4491 5.31535 25.9946C4.95965 27.5401 5.00459 29.1509 5.44591 30.6742C5.88723 32.1974 6.71031 33.5828 7.8371 34.6988C7.96059 37.3664 9.0915 39.8877 11.0016 41.754Z" fill="#7DA543"/>
<path d="M23.1773 19.111C23.0926 19.0696 23.0005 19.0454 22.9065 19.0396C22.8124 19.0338 22.7181 19.0466 22.6289 19.0772C22.5398 19.1079 22.4576 19.1558 22.387 19.2182C22.3164 19.2807 22.2587 19.3564 22.2174 19.4411C21.9317 20.0252 21.8346 20.6836 21.9395 21.3252C22.0445 21.9668 22.3462 22.56 22.803 23.0226C23.2599 23.4853 23.8492 23.7945 24.4894 23.9075C25.1297 24.0205 25.7893 23.9317 26.3769 23.6534C26.9645 23.3752 27.4511 22.9211 27.7693 22.3542C28.0875 21.7872 28.2217 21.1354 28.1532 20.4888C28.0848 19.8423 27.817 19.233 27.3871 18.7453C26.9572 18.2576 26.3863 17.9155 25.7534 17.7665V17.1095C25.7534 16.9192 25.6778 16.7366 25.5432 16.602C25.4086 16.4675 25.2261 16.3918 25.0358 16.3918C24.8454 16.3918 24.6629 16.4675 24.5283 16.602C24.3937 16.7366 24.3181 16.9192 24.3181 17.1095V18.3987C24.3181 18.5891 24.3937 18.7716 24.5283 18.9062C24.6629 19.0408 24.8454 19.1164 25.0358 19.1164C25.3719 19.1164 25.7005 19.2161 25.98 19.4028C26.2595 19.5896 26.4774 19.855 26.606 20.1656C26.7346 20.4762 26.7683 20.8179 26.7027 21.1476C26.6371 21.4773 26.4752 21.7801 26.2375 22.0178C25.9998 22.2555 25.6969 22.4173 25.3672 22.4829C25.0375 22.5485 24.6958 22.5148 24.3853 22.3861C24.0747 22.2574 23.8093 22.0396 23.6226 21.7601C23.4358 21.4805 23.3362 21.1519 23.3362 20.8158C23.3354 20.5578 23.3939 20.3032 23.5072 20.0714C23.5486 19.9867 23.573 19.8946 23.5788 19.8005C23.5847 19.7064 23.5719 19.612 23.5413 19.5228C23.5106 19.4336 23.4627 19.3513 23.4003 19.2807C23.3378 19.21 23.262 19.1524 23.1773 19.111Z" fill="#7DA543"/>
<path d="M42.982 33.4397C42.7932 33.416 42.6027 33.4682 42.4525 33.5849C42.3022 33.7016 42.2044 33.8732 42.1806 34.062C42.167 34.1692 42.1602 34.277 42.1602 34.385C42.1598 34.8572 42.2909 35.3201 42.5388 35.722C42.7867 36.1239 43.1415 36.4488 43.5636 36.6604C43.9857 36.872 44.4584 36.962 44.9287 36.9202C45.399 36.8784 45.8484 36.7065 46.2265 36.4237C46.6047 36.141 46.8967 35.7585 47.0698 35.3192C47.2429 34.8799 47.2903 34.4011 47.2066 33.9364C47.123 33.4717 46.9117 33.0394 46.5963 32.688C46.2809 32.3366 45.874 32.08 45.421 31.9468V31.2176C45.421 31.0273 45.3454 30.8448 45.2108 30.7102C45.0762 30.5756 44.8936 30.5 44.7033 30.5C44.513 30.5 44.3305 30.5756 44.1959 30.7102C44.0613 30.8448 43.9857 31.0273 43.9857 31.2176V32.5596C43.9857 32.75 44.0613 32.9325 44.1959 33.0671C44.3305 33.2017 44.513 33.2773 44.7033 33.2773C44.9225 33.2773 45.1367 33.3422 45.319 33.4639C45.5012 33.5857 45.6433 33.7587 45.7271 33.9612C45.811 34.1637 45.833 34.3864 45.7903 34.6014C45.7475 34.8164 45.642 35.0138 45.4871 35.1688C45.3321 35.3238 45.1347 35.4293 44.9197 35.4721C44.7048 35.5149 44.482 35.4929 44.2795 35.4091C44.077 35.3252 43.904 35.1832 43.7822 35.001C43.6604 34.8187 43.5955 34.6045 43.5955 34.3853C43.5955 34.3374 43.5986 34.2894 43.6046 34.2418C43.6164 34.1483 43.6097 34.0533 43.5848 33.9623C43.56 33.8714 43.5174 33.7862 43.4596 33.7117C43.4017 33.6372 43.3298 33.5748 43.2479 33.5282C43.1659 33.4815 43.0756 33.4514 42.982 33.4397Z" fill="#7DA543"/>
<path d="M55.5998 40.2176C55.7901 40.2176 55.9726 40.142 56.1072 40.0074C56.2418 39.8728 56.3174 39.6903 56.3174 39.4999V38.3876C56.3174 38.1972 56.2418 38.0147 56.1072 37.8801C55.9726 37.7455 55.7901 37.6699 55.5998 37.6699C55.4094 37.6699 55.2269 37.7455 55.0923 37.8801C54.9577 38.0147 54.8821 38.1972 54.8821 38.3876V38.8874C54.4033 39.0294 53.977 39.3094 53.6565 39.6924C53.336 40.0754 53.1355 40.5443 53.0801 41.0407C53.0247 41.537 53.1169 42.0386 53.3451 42.4828C53.5733 42.9271 53.9274 43.2941 54.3631 43.5382C54.7988 43.7822 55.2968 43.8924 55.7948 43.8549C56.2928 43.8175 56.7687 43.634 57.163 43.3275C57.5572 43.021 57.8524 42.6051 58.0116 42.1317C58.1707 41.6583 58.1867 41.1485 58.0577 40.6661C58.0085 40.4822 57.8882 40.3254 57.7234 40.2302C57.5586 40.135 57.3627 40.1091 57.1788 40.1584C56.9949 40.2076 56.8381 40.3278 56.7429 40.4927C56.6476 40.6575 56.6218 40.8534 56.671 41.0373C56.7313 41.2609 56.72 41.4978 56.6388 41.7146C56.5576 41.9315 56.4104 42.1174 56.218 42.2464C56.0257 42.3753 55.7978 42.4407 55.5663 42.4335C55.3348 42.4262 55.1115 42.3466 54.9275 42.2059C54.7436 42.0652 54.6084 41.8704 54.5409 41.6489C54.4734 41.4273 54.477 41.1902 54.5512 40.9709C54.6253 40.7515 54.7664 40.5608 54.9544 40.4257C55.1425 40.2906 55.3682 40.2178 55.5998 40.2176Z" fill="#7DA543"/>
<path d="M39.2318 39.354C39.1395 39.335 39.0443 39.3345 38.9517 39.3523C38.8592 39.3701 38.771 39.406 38.6924 39.4579C38.6137 39.5098 38.546 39.5767 38.4931 39.6547C38.4403 39.7328 38.4034 39.8205 38.3844 39.9129C38.2847 40.3968 38.328 40.8993 38.5091 41.3591C38.6903 41.8188 39.0014 42.2158 39.4045 42.5016C39.8076 42.7874 40.2852 42.9496 40.7789 42.9684C41.2727 42.9873 41.7613 42.8618 42.1849 42.6075C42.6086 42.3532 42.949 41.981 43.1646 41.5364C43.3802 41.0917 43.4616 40.594 43.3989 40.1038C43.3362 39.6137 43.1321 39.1524 42.8115 38.7764C42.4909 38.4004 42.0678 38.1258 41.5938 37.9863V37.3763C41.5938 37.186 41.5182 37.0035 41.3836 36.8689C41.249 36.7343 41.0665 36.6587 40.8761 36.6587C40.6858 36.6587 40.5033 36.7343 40.3687 36.8689C40.2341 37.0035 40.1585 37.186 40.1585 37.3763V38.5994C40.1585 38.7897 40.2341 38.9723 40.3687 39.1068C40.5033 39.2414 40.6858 39.317 40.8761 39.317C41.1042 39.3175 41.3266 39.3885 41.5128 39.5203C41.699 39.652 41.8398 39.8382 41.9161 40.0532C41.9923 40.2682 42.0002 40.5015 41.9387 40.7211C41.8771 40.9408 41.7491 41.136 41.5723 41.2801C41.3954 41.4241 41.1783 41.5099 40.9508 41.5258C40.7232 41.5416 40.4963 41.4867 40.3012 41.3686C40.1061 41.2504 39.9523 41.0748 39.8609 40.8658C39.7695 40.6568 39.745 40.4247 39.7907 40.2012C39.8096 40.1089 39.8102 40.0137 39.7923 39.9212C39.7745 39.8286 39.7386 39.7405 39.6867 39.6618C39.6348 39.5832 39.5679 39.5155 39.4899 39.4627C39.4118 39.4099 39.3241 39.3729 39.2318 39.354Z" fill="#7DA543"/>
<path d="M13.9271 25.7617C13.7368 25.7617 13.5542 25.8373 13.4197 25.9719C13.2851 26.1065 13.2095 26.289 13.2095 26.4794V28.1203C13.2095 28.3106 13.2851 28.4931 13.4197 28.6277C13.5542 28.7623 13.7368 28.8379 13.9271 28.8379C14.3095 28.838 14.6808 28.9671 14.9806 29.2045C15.2805 29.4418 15.4915 29.7734 15.5795 30.1456C15.6675 30.5177 15.6273 30.9087 15.4654 31.2552C15.3035 31.6017 15.0294 31.8833 14.6875 32.0546C14.3455 32.2259 13.9558 32.2768 13.5814 32.199C13.2069 32.1213 12.8697 31.9194 12.6243 31.6261C12.3789 31.3328 12.2396 30.9653 12.2291 30.583C12.2186 30.2007 12.3374 29.826 12.5663 29.5197C12.6228 29.4443 12.664 29.3585 12.6874 29.2672C12.7107 29.1759 12.7159 29.0809 12.7026 28.9876C12.6893 28.8943 12.6577 28.8045 12.6097 28.7235C12.5617 28.6424 12.4981 28.5715 12.4227 28.515C12.3474 28.4584 12.2616 28.4173 12.1703 28.3939C12.079 28.3705 11.984 28.3653 11.8907 28.3787C11.7974 28.392 11.7076 28.4236 11.6265 28.4716C11.5454 28.5196 11.4746 28.5831 11.418 28.6585C11.0122 29.1986 10.7916 29.8553 10.7891 30.5309C10.7866 31.2064 11.0023 31.8648 11.4041 32.4079C11.8059 32.951 12.3723 33.3498 13.019 33.5451C13.6658 33.7403 14.3583 33.7215 14.9935 33.4914C15.6287 33.2613 16.1726 32.8322 16.5443 32.2681C16.916 31.704 17.0956 31.0349 17.0564 30.3604C17.0171 29.686 16.7612 29.0423 16.3266 28.525C15.892 28.0078 15.302 27.6447 14.6444 27.4898V26.4794C14.6444 26.2891 14.5688 26.1066 14.4343 25.972C14.2998 25.8375 14.1174 25.7618 13.9271 25.7617Z" fill="#7DA543"/>
<path d="M28.8853 29.8196C28.695 29.8196 28.5124 29.8952 28.3778 30.0298C28.2433 30.1644 28.1676 30.3469 28.1676 30.5372V32.3145C28.1676 32.5048 28.2433 32.6873 28.3778 32.8219C28.5124 32.9565 28.695 33.0321 28.8853 33.0321C29.2214 33.0321 29.5501 33.1317 29.8296 33.3185C30.1091 33.5052 30.327 33.7706 30.4556 34.0812C30.5843 34.3917 30.618 34.7335 30.5524 35.0632C30.4868 35.3928 30.325 35.6957 30.0873 35.9334C29.8496 36.1711 29.5468 36.333 29.2171 36.3986C28.8874 36.4642 28.5457 36.4305 28.2351 36.3019C27.9246 36.1733 27.6591 35.9554 27.4723 35.6759C27.2856 35.3964 27.1859 35.0678 27.1859 34.7317C27.1849 34.4625 27.2487 34.197 27.3718 33.9575C27.4586 33.7882 27.4746 33.5912 27.4163 33.4101C27.3579 33.2289 27.23 33.0783 27.0606 32.9915C26.8912 32.9047 26.6943 32.8887 26.5131 32.947C26.3319 33.0054 26.1814 33.1333 26.0945 33.3027C25.7963 33.8833 25.6866 34.5426 25.7809 35.1886C25.8752 35.8345 26.1687 36.4349 26.6205 36.9061C27.0723 37.3773 27.6599 37.6957 28.3013 37.8171C28.9427 37.9384 29.606 37.8565 30.1987 37.5829C30.7914 37.3093 31.2839 36.8575 31.6076 36.2907C31.9313 35.7238 32.07 35.07 32.0044 34.4205C31.9388 33.771 31.6722 33.1582 31.2417 32.6675C30.8112 32.1767 30.2384 31.8326 29.6029 31.683V30.5372C29.6029 30.3469 29.5273 30.1644 29.3927 30.0298C29.2582 29.8952 29.0756 29.8196 28.8853 29.8196Z" fill="#7DA543"/>
</g>
<defs>
<clipPath id="clip0_111_382">
<rect width="69" height="69" fill="white"/>
</clipPath>
</defs>
</svg>
