<svg width="69" height="69" viewBox="0 0 69 69" fill="none" xmlns="http://www.w3.org/2000/svg"><g clip-path="url(#a)" fill="#7DA543"><path d="M58.83 31.827c-.11 0-.221.004-.332.01-.605-1.973-2.593-3.388-4.904-3.388-.17 0-.341.008-.507.023a.718.718 0 0 0 .129 1.43c.124-.012.25-.018.378-.018 1.857 0 3.42 1.22 3.633 2.837a.716.716 0 0 0 .843.611c.25-.046.506-.07.761-.07 2.017 0 3.658 1.44 3.658 3.21a3.053 3.053 0 0 1-1.17 2.35.716.716 0 0 0-.062 1.055 3.545 3.545 0 0 1 1.035 2.467c0 2.097-1.939 3.803-4.322 3.803-.101 0-.209-.004-.337-.013a.716.716 0 0 0-.447.119 6.453 6.453 0 0 1-3.591 1.06 6.348 6.348 0 0 1-4.261-1.579.716.716 0 0 0-1.196.573.716.716 0 0 0 .237.496 7.632 7.632 0 0 0 3.697 1.803v5.935c.001.422-.153.83-.433 1.146a3.736 3.736 0 0 0-.883 1.538.717.717 0 0 0 .697.892h5.471a.719.719 0 0 0 .692-.911 5.54 5.54 0 0 0-.76-1.625 1.636 1.636 0 0 1-.308-.987v-4.456a.718.718 0 0 0-1.435 0v4.458a3.075 3.075 0 0 0 .599 1.853 2.1 2.1 0 0 1 .15.233h-3.187l.036-.04a3.157 3.157 0 0 0 .796-2.1v-5.794l.087.002a7.905 7.905 0 0 0 4.181-1.17l.194.003c3.175 0 5.757-2.35 5.757-5.239a4.905 4.905 0 0 0-.971-2.912 4.41 4.41 0 0 0 1.168-2.96c0-2.562-2.284-4.645-5.093-4.645Z"/><path d="M46.44 27.011c-.12 0-.24.004-.36.012a5.327 5.327 0 0 0-3.864-3.806.718.718 0 0 0-.34 1.394 3.879 3.879 0 0 1 2.916 3.298.719.719 0 0 0 .858.618 3.868 3.868 0 0 1 3.39 6.652.718.718 0 0 0-.06 1.002 4.563 4.563 0 0 1-3.793 7.543.717.717 0 0 0-.482.139 6.308 6.308 0 0 1-7.912-.327.717.717 0 1 0-.947 1.078 7.732 7.732 0 0 0 2.583 1.498V58.42a2.296 2.296 0 0 1-.578 1.53 4.459 4.459 0 0 0-1.054 1.83.718.718 0 0 0 .696.891h6.766a.717.717 0 0 0 .691-.91c-.034-.123-.349-1.21-.912-1.954a2.192 2.192 0 0 1-.414-1.322V48.36a.718.718 0 1 0-1.436 0v10.126a3.63 3.63 0 0 0 .706 2.188c.128.176.237.364.328.562h-4.57c.08-.11.171-.22.271-.333a3.732 3.732 0 0 0 .942-2.483V46.459a7.73 7.73 0 0 0 5.478-1.289 5.997 5.997 0 0 0 5.126-9.408 5.304 5.304 0 0 0-4.03-8.75Z"/><path d="M11.002 41.754a10.584 10.584 0 0 0 3.442 2.264v3.748a7.063 7.063 0 0 0 4.95 6.776l.092.029a2.105 2.105 0 0 1 1.512 2.016v7.69a2.684 2.684 0 0 1-.696 1.765 5.492 5.492 0 0 0-1.105 1.975.718.718 0 0 0 .692.907h9.508a.72.72 0 0 0 .695-.894c-.15-.592-.559-1.322-1.215-2.17a2.609 2.609 0 0 1-.52-1.263c-.703-5.46-.546-13.616-.39-17.993l.005-.109a.718.718 0 1 0-1.434-.055l-.004.11v.001c-.194 5.4-.281 12.946.399 18.228.09.714.37 1.39.809 1.96.203.263.38.515.527.749h-7.26a3.98 3.98 0 0 1 .37-.497 4.117 4.117 0 0 0 1.054-2.715v-7.689a3.532 3.532 0 0 0-2.53-3.39l-.078-.024a5.635 5.635 0 0 1-3.945-5.407v-3.282a10.72 10.72 0 0 0 4.742.08v4.764a3.11 3.11 0 0 1-2.11-2.969v-.134a.718.718 0 1 0-1.436 0v.134a4.53 4.53 0 0 0 4.117 4.546l.088.007a.708.708 0 0 0 .566-.207.718.718 0 0 0 .21-.508v-6.044a10.568 10.568 0 0 0 1.835-.875 9.282 9.282 0 0 0 14.019-10.279 9.28 9.28 0 0 0-4.468-14.979 10.079 10.079 0 0 0-19.903 1.422v.014l-.001.014c-.005.142-.03 1.416.412 2.375a.718.718 0 1 0 1.303-.602c-.25-.543-.288-1.404-.281-1.713a8.642 8.642 0 0 1 17.143-.81.717.717 0 0 0 .545.58 7.844 7.844 0 0 1 3.923 13.027.718.718 0 0 0-.16.718 7.847 7.847 0 0 1-12.09 8.792.718.718 0 0 0-.822-.018 9.172 9.172 0 0 1-14.25-7.45.718.718 0 0 0-.23-.512 7.877 7.877 0 0 1 2.819-13.23.717.717 0 1 0-.463-1.358 9.31 9.31 0 0 0-3.55 15.43 10.545 10.545 0 0 0 3.164 7.055Z"/><path d="M23.177 19.111a.717.717 0 0 0-.96.33 3.136 3.136 0 1 0 3.536-1.674v-.657a.718.718 0 0 0-1.435 0v1.289a.718.718 0 0 0 .718.717 1.7 1.7 0 1 1-1.529.955.718.718 0 0 0-.33-.96ZM42.982 33.44a.717.717 0 0 0-.801.622 2.565 2.565 0 0 0 .358 1.66 2.543 2.543 0 1 0 2.882-3.775v-.73a.718.718 0 0 0-1.435 0v1.343a.718.718 0 0 0 .717.717 1.109 1.109 0 1 1-1.098.965.718.718 0 0 0-.623-.802ZM55.6 40.218a.718.718 0 0 0 .717-.718v-1.112a.718.718 0 1 0-1.435 0v.5a2.54 2.54 0 1 0 3.176 1.778.718.718 0 1 0-1.387.371 1.108 1.108 0 1 1-1.071-.82Zm-16.368-.864a.718.718 0 0 0-.848.559 2.545 2.545 0 1 0 3.21-1.927v-.61a.718.718 0 0 0-1.436 0V38.6a.717.717 0 0 0 .718.718 1.106 1.106 0 1 1-1.085.884.717.717 0 0 0-.56-.847ZM13.927 25.762a.717.717 0 0 0-.717.717v1.641a.718.718 0 0 0 .717.718 1.698 1.698 0 1 1-1.36.682.719.719 0 0 0-1.149-.861 3.136 3.136 0 1 0 3.226-1.17v-1.01a.718.718 0 0 0-.717-.717Zm14.958 4.058a.718.718 0 0 0-.717.717v1.778a.718.718 0 0 0 .717.717 1.7 1.7 0 1 1-1.513.926.718.718 0 0 0-1.277-.655 3.136 3.136 0 1 0 3.508-1.62v-1.146a.718.718 0 0 0-.718-.717Z"/></g><defs><clipPath id="a"><path fill="#fff" d="M0 0h69v69H0z"/></clipPath></defs></svg>