<svg width="69" height="69" viewBox="0 0 69 69" fill="none" xmlns="http://www.w3.org/2000/svg"><path d="M15.881 37.231a.724.724 0 1 1 1.255.725l-4.483 7.764a.725.725 0 1 1-1.255-.725l-.086-.05.086.05 4.483-7.764Z" fill="#7DA543" stroke="#fff" stroke-width=".2"/><mask id="a" fill="#fff"><path d="M62.972 29.403a1.36 1.36 0 0 0-.687-1.19 1.36 1.36 0 0 0-1.375 0l-5.516 3.185a.825.825 0 1 0 .825 1.428l5.104-2.947v16.335l-4.646 2.682-7.073-12.251 3.12-1.802a.825.825 0 1 0-.824-1.428l-8.152 4.706a7.55 7.55 0 0 1-3.77 1.01h-9.234c-.742 0-1.432.228-2.004.617a1.875 1.875 0 0 1-.168-.086c-.39-.225-19.262-11.12-19.83-11.45a1.36 1.36 0 0 0-1.375 0 1.36 1.36 0 0 0-.687 1.191v16.97c0 .49.263.945.687 1.19l5.021 2.899a1.376 1.376 0 0 0 1.877-.503l.38-.659 2.278 1.315-.255.147a3.39 3.39 0 0 0-1.239 4.625 3.379 3.379 0 0 0 2.295 1.631 3.364 3.364 0 0 0 .266 2.806 3.388 3.388 0 0 0 3.598 1.627 3.384 3.384 0 0 0 5.068 3.195l.441-.255a3.384 3.384 0 0 0 5.078 2.984l1.479-.854c.368-.213.686-.487.945-.808l2.878 1.661a3.39 3.39 0 0 0 5.08-2.982l.439.254a3.384 3.384 0 0 0 5.069-3.195 3.393 3.393 0 0 0 3.596-1.627 3.37 3.37 0 0 0 .266-2.806 3.38 3.38 0 0 0 2.295-1.631 3.39 3.39 0 0 0-1.24-4.626l-.253-.146 2.277-1.315.38.659c.378.654 1.22.883 1.877.503l5.022-2.9c.424-.244.687-.7.687-1.19V29.404Zm-46.115 25.16a1.736 1.736 0 0 1 .636-2.373l1.938-1.119a1.739 1.739 0 0 1 2.373.636 1.74 1.74 0 0 1-.636 2.372L19.23 55.2a1.74 1.74 0 0 1-2.373-.637Zm2.562 4.436a1.736 1.736 0 0 1 .635-2.373l4.42-2.551a1.736 1.736 0 0 1 1.745 3.003l-4.428 2.557a1.739 1.739 0 0 1-2.372-.636Zm6.412 4.218a1.736 1.736 0 0 1-1.74-3.006l4.027-2.325a1.736 1.736 0 1 1 1.737 3.008c-.462.267-3.064 1.77-4.024 2.323Zm6.998 1.875-1.479.854a1.736 1.736 0 1 1-1.736-3.008l1.478-.854a1.736 1.736 0 1 1 1.737 3.008Zm19.966-10.53a1.739 1.739 0 0 1-2.373.636l-7.623-4.4a.824.824 0 1 0-.824 1.427l7.622 4.401a1.736 1.736 0 1 1-1.736 3.009l-8.134-4.696a.824.824 0 1 0-.825 1.428l6.655 3.842c.402.232.69.607.81 1.054a1.736 1.736 0 0 1-2.546 1.954l-6.566-3.79a.824.824 0 1 0-.825 1.428l3.608 2.083.003.001a1.736 1.736 0 0 1-1.74 3.007l-3.011-1.739a3.385 3.385 0 0 0-3.02-3.99 3.363 3.363 0 0 0-.351-2.52 3.39 3.39 0 0 0-3.218-1.68 3.36 3.36 0 0 0-.426-2.132 3.363 3.363 0 0 0-2.056-1.577 3.363 3.363 0 0 0-2.535.318 3.366 3.366 0 0 0-.452-1.744 3.39 3.39 0 0 0-4.625-1.24l-.035.02-3.102-1.79 1.04-1.801a.825.825 0 1 0-1.428-.825l-2.107 3.65-4.646-2.682V29.879l11.719 6.766-3.063 5.305a.825.825 0 0 0 1.428.825l3.063-5.306 6.125 3.537a3.551 3.551 0 0 0-.43 1.698v5.24c0 .758.617 1.374 1.374 1.374h.725c2.13 0 3.95-1.424 4.502-3.415h.474c.509 0 .97.273 1.204.713a5.127 5.127 0 0 0 4.746 2.696 5.085 5.085 0 0 0 3.271-1.41.84.84 0 0 1 1.005-.142l7.687 4.43a1.74 1.74 0 0 1 .636 2.372Zm-1.717-4.898-5.782-3.333a2.478 2.478 0 0 0-.604-.249c.361-.92.45-1.941.23-2.952a.825.825 0 0 0-1.611.35 3.431 3.431 0 0 1-.981 3.227l-.003.003a3.434 3.434 0 0 1-2.21.955 3.424 3.424 0 0 1-3.211-1.824 3.003 3.003 0 0 0-2.66-1.587h-.303v-.883a.825.825 0 1 0-1.65 0c-.004 1.221.013 1.33-.018 1.61v.006a3.018 3.018 0 0 1-3.005 2.682h-.45v-4.964c0-1.061.863-1.924 1.924-1.924h9.235a9.2 9.2 0 0 0 4.594-1.231l3.603-2.08 6.005 10.402-3.103 1.792Z"/></mask><path d="M62.972 29.403a1.36 1.36 0 0 0-.687-1.19 1.36 1.36 0 0 0-1.375 0l-5.516 3.185a.825.825 0 1 0 .825 1.428l5.104-2.947v16.335l-4.646 2.682-7.073-12.251 3.12-1.802a.825.825 0 1 0-.824-1.428l-8.152 4.706a7.55 7.55 0 0 1-3.77 1.01h-9.234c-.742 0-1.432.228-2.004.617a1.875 1.875 0 0 1-.168-.086c-.39-.225-19.262-11.12-19.83-11.45a1.36 1.36 0 0 0-1.375 0 1.36 1.36 0 0 0-.687 1.191v16.97c0 .49.263.945.687 1.19l5.021 2.899a1.376 1.376 0 0 0 1.877-.503l.38-.659 2.278 1.315-.255.147a3.39 3.39 0 0 0-1.239 4.625 3.379 3.379 0 0 0 2.295 1.631 3.364 3.364 0 0 0 .266 2.806 3.388 3.388 0 0 0 3.598 1.627 3.384 3.384 0 0 0 5.068 3.195l.441-.255a3.384 3.384 0 0 0 5.078 2.984l1.479-.854c.368-.213.686-.487.945-.808l2.878 1.661a3.39 3.39 0 0 0 5.08-2.982l.439.254a3.384 3.384 0 0 0 5.069-3.195 3.393 3.393 0 0 0 3.596-1.627 3.37 3.37 0 0 0 .266-2.806 3.38 3.38 0 0 0 2.295-1.631 3.39 3.39 0 0 0-1.24-4.626l-.253-.146 2.277-1.315.38.659c.378.654 1.22.883 1.877.503l5.022-2.9c.424-.244.687-.7.687-1.19V29.404Zm-46.115 25.16a1.736 1.736 0 0 1 .636-2.373l1.938-1.119a1.739 1.739 0 0 1 2.373.636 1.74 1.74 0 0 1-.636 2.372L19.23 55.2a1.74 1.74 0 0 1-2.373-.637Zm2.562 4.436a1.736 1.736 0 0 1 .635-2.373l4.42-2.551a1.736 1.736 0 0 1 1.745 3.003l-4.428 2.557a1.739 1.739 0 0 1-2.372-.636Zm6.412 4.218a1.736 1.736 0 0 1-1.74-3.006l4.027-2.325a1.736 1.736 0 1 1 1.737 3.008c-.462.267-3.064 1.77-4.024 2.323Zm6.998 1.875-1.479.854a1.736 1.736 0 1 1-1.736-3.008l1.478-.854a1.736 1.736 0 1 1 1.737 3.008Zm19.966-10.53a1.739 1.739 0 0 1-2.373.636l-7.623-4.4a.824.824 0 1 0-.824 1.427l7.622 4.401a1.736 1.736 0 1 1-1.736 3.009l-8.134-4.696a.824.824 0 1 0-.825 1.428l6.655 3.842c.402.232.69.607.81 1.054a1.736 1.736 0 0 1-2.546 1.954l-6.566-3.79a.824.824 0 1 0-.825 1.428l3.608 2.083.003.001a1.736 1.736 0 0 1-1.74 3.007l-3.011-1.739a3.385 3.385 0 0 0-3.02-3.99 3.363 3.363 0 0 0-.351-2.52 3.39 3.39 0 0 0-3.218-1.68 3.36 3.36 0 0 0-.426-2.132 3.363 3.363 0 0 0-2.056-1.577 3.363 3.363 0 0 0-2.535.318 3.366 3.366 0 0 0-.452-1.744 3.39 3.39 0 0 0-4.625-1.24l-.035.02-3.102-1.79 1.04-1.801a.825.825 0 1 0-1.428-.825l-2.107 3.65-4.646-2.682V29.879l11.719 6.766-3.063 5.305a.825.825 0 0 0 1.428.825l3.063-5.306 6.125 3.537a3.551 3.551 0 0 0-.43 1.698v5.24c0 .758.617 1.374 1.374 1.374h.725c2.13 0 3.95-1.424 4.502-3.415h.474c.509 0 .97.273 1.204.713a5.127 5.127 0 0 0 4.746 2.696 5.085 5.085 0 0 0 3.271-1.41.84.84 0 0 1 1.005-.142l7.687 4.43a1.74 1.74 0 0 1 .636 2.372Zm-1.717-4.898-5.782-3.333a2.478 2.478 0 0 0-.604-.249c.361-.92.45-1.941.23-2.952a.825.825 0 0 0-1.611.35 3.431 3.431 0 0 1-.981 3.227l-.003.003a3.434 3.434 0 0 1-2.21.955 3.424 3.424 0 0 1-3.211-1.824 3.003 3.003 0 0 0-2.66-1.587h-.303v-.883a.825.825 0 1 0-1.65 0c-.004 1.221.013 1.33-.018 1.61v.006a3.018 3.018 0 0 1-3.005 2.682h-.45v-4.964c0-1.061.863-1.924 1.924-1.924h9.235a9.2 9.2 0 0 0 4.594-1.231l3.603-2.08 6.005 10.402-3.103 1.792Z" fill="#7DA543" stroke="#fff" stroke-width=".4" mask="url(#a)"/><path d="m56.998 45.72-4.482-7.764a.724.724 0 1 1 1.255-.725l4.482 7.764a.724.724 0 1 1-1.255.725ZM40.674 14.951v.1h4.457a2.379 2.379 0 0 1 2.373 2.374v13.778a2.377 2.377 0 0 1-2.373 2.374H31.298a.725.725 0 1 1 0-1.45h13.833c.51 0 .924-.414.924-.924V17.605l-.17.17-7.743 7.666-.03.029v.885a2.101 2.101 0 0 1-2.098 2.099H33.64a2.101 2.101 0 0 1-2.1-2.1v-.884l-.029-.03-7.743-7.666-.17-.168v13.597c0 .51.415.924.925.924h2.817a.725.725 0 1 1 0 1.45h-2.817a2.377 2.377 0 0 1-2.374-2.374V17.425a2.379 2.379 0 0 1 2.374-2.374h4.456v-2.14c0-.703.572-1.275 1.274-1.275H39.4c.702 0 1.274.572 1.274 1.275v2.04Zm-10.146-1.866h-.1v1.966h8.797v-1.966h-8.697ZM38.01 23.33l.05.154.116-.114 6.764-6.697.172-.171H24.543l.172.17 6.765 6.698.115.114.05-.154a2.103 2.103 0 0 1 1.995-1.447h2.375c.93 0 1.72.608 1.995 1.447Zm-1.995 3.675a.65.65 0 0 0 .65-.65v-2.373a.65.65 0 0 0-.65-.65H33.64a.65.65 0 0 0-.65.65v2.374c0 .358.292.65.65.65h2.375Z" fill="#7DA543" stroke="#fff" stroke-width=".2"/></svg>