<svg width="69" height="69" viewBox="0 0 69 69" fill="none" xmlns="http://www.w3.org/2000/svg"><g clip-path="url(#a)"><path d="m43.154 11.47-.006.155h9.693a2.14 2.14 0 0 1 2.136 2.136v17.153a2.139 2.139 0 0 1-2.136 2.136h-7.142a.83.83 0 1 1 0-1.66h7.142a.477.477 0 0 0 .476-.476V13.76a.477.477 0 0 0-.476-.476H16.038a.477.477 0 0 0-.477.476v4.776a.83.83 0 1 1-1.659 0v-4.775c0-1.178.958-2.136 2.136-2.136H31.08l.017-.132a3.27 3.27 0 0 1 5.789-1.651l.107.134.118-.124a5.462 5.462 0 0 1 4.31-1.693 1.508 1.508 0 0 1 1.283.899c.328.759.48 1.588.449 2.41Zm-1.896-1.562-.036-.098h-.133c-1.23 0-2.37.578-3.102 1.577l-.174.238h3.668l.009-.14a3.89 3.89 0 0 0-.232-1.577Zm-5.526 1.718h.2l-.056-.193a1.598 1.598 0 0 0-1.538-1.148c-.727 0-1.34.485-1.538 1.148l-.058.193h2.991Z" fill="#7DA543" stroke="#fff" stroke-width=".3"/><mask id="b" fill="#fff"><path d="M11.495 55.602c2.28.28 4.82.968 7.553 2.042 4.394 1.729 6.906.328 9.335-1.026 1.84-1.025 3.742-2.086 6.764-2.086 3.338 0 5.275.97 7.147 1.909 1.75.877 3.558 1.783 6.274 1.783 3.268 0 5.284.724 7.063 1.363 1.272.457 2.473.889 3.822.889H66.9a.98.98 0 1 0 0-1.96h-7.447c-1.008 0-1.957-.34-3.16-.773-1.833-.659-4.115-1.479-7.725-1.479-2.253 0-3.71-.73-5.396-1.575-1.479-.74-3.105-1.556-5.419-1.92V45.87c.227-.077.457-.15.69-.215a3.749 3.749 0 0 0 2.098-1.532 5.62 5.62 0 0 0 2.757 1.322 5.63 5.63 0 0 0 5.18-1.777c.444-.49.565-1.176.316-1.79a5.685 5.685 0 0 0-2.415-2.77 5.804 5.804 0 0 0-.2-3.556 1.742 1.742 0 0 0-1.474-1.107 5.799 5.799 0 0 0-6.053 4.108 3.69 3.69 0 0 0-.899-.189V33.2h3.68a.98.98 0 1 0 0-1.96H34.57a5.793 5.793 0 0 0-1.44-4.387 1.743 1.743 0 0 0-1.77-.52 5.8 5.8 0 0 0-4.198 4.907H16.038a.327.327 0 0 1-.326-.326v-8.111a.98.98 0 1 0-1.96 0v8.11a2.289 2.289 0 0 0 2.286 2.287h5.572a5.672 5.672 0 0 0-.323 2.248c.037.613.425 1.167.989 1.411a5.637 5.637 0 0 0 6.015-.968 3.65 3.65 0 0 0 .45 2.627 3.65 3.65 0 0 0 2.182 1.662v2.28a5.79 5.79 0 0 0-5.122-.472 1.742 1.742 0 0 0-1.107 1.475A5.801 5.801 0 0 0 27 48.608a5.82 5.82 0 0 0 2.474 1.072c-2.024 2.723-2.73 5.273-2.764 5.402a.98.98 0 0 0-.032.239c-2.04 1.102-3.76 1.74-6.914.5-2.886-1.135-5.588-1.863-8.03-2.163a.979.979 0 1 0-.24 1.944Zm19.428-2.35c-.607.206-1.167.445-1.694.7.369-.816.918-1.855 1.694-2.931v2.23Zm4.87-.668c-.21-.007-.425-.011-.646-.011-.822 0-1.572.068-2.265.184v-3.499c.425-.24.718-.662.791-1.15a13.46 13.46 0 0 1 2.12-1.391v5.867Zm11.122-10.113a3.682 3.682 0 0 1-3.277 1.045 3.716 3.716 0 0 1-1.058-.355 5.845 5.845 0 0 0 2.817-2.023c.057-.077.11-.155.164-.233a3.72 3.72 0 0 1 1.354 1.566Zm-5.789-4.541a3.856 3.856 0 0 1 3.273-1.54 3.847 3.847 0 0 1-.569 3.57 3.845 3.845 0 0 1-3.273 1.544 3.84 3.84 0 0 1 .57-3.574Zm-2.72 2.67c.035.627.172 1.252.413 1.846.055.137.127.262.214.375a1.784 1.784 0 0 1-1.125.95l-.155.046V40.34c.233.042.455.13.653.26Zm-2.612 3.939c-.807.36-1.578.787-2.311 1.28a5.892 5.892 0 0 0-.6-1.38v-9.61c.47-.47.86-1.021 1.148-1.629h1.763v11.339ZM29.23 30.851a3.85 3.85 0 0 1 2.524-2.59 3.847 3.847 0 0 1 .72 3.544 3.838 3.838 0 0 1-2.523 2.593 3.84 3.84 0 0 1-.721-3.547Zm-2.581 3.845a3.68 3.68 0 0 1-3.413.439 3.712 3.712 0 0 1 .532-1.935h3.49c.053.243.122.482.206.717-.229.299-.502.56-.815.78Zm3.773 2.817a1.709 1.709 0 0 1-.223-1.151l.034-.007c.236-.061.465-.138.689-.228v1.922a1.733 1.733 0 0 1-.5-.536Zm-3.786 6.256a3.847 3.847 0 0 1 3.572.569 3.837 3.837 0 0 1 1.543 3.273 3.84 3.84 0 0 1-3.574-.57 3.85 3.85 0 0 1-1.54-3.272Z"/></mask><path d="M11.495 55.602c2.28.28 4.82.968 7.553 2.042 4.394 1.729 6.906.328 9.335-1.026 1.84-1.025 3.742-2.086 6.764-2.086 3.338 0 5.275.97 7.147 1.909 1.75.877 3.558 1.783 6.274 1.783 3.268 0 5.284.724 7.063 1.363 1.272.457 2.473.889 3.822.889H66.9a.98.98 0 1 0 0-1.96h-7.447c-1.008 0-1.957-.34-3.16-.773-1.833-.659-4.115-1.479-7.725-1.479-2.253 0-3.71-.73-5.396-1.575-1.479-.74-3.105-1.556-5.419-1.92V45.87c.227-.077.457-.15.69-.215a3.749 3.749 0 0 0 2.098-1.532 5.62 5.62 0 0 0 2.757 1.322 5.63 5.63 0 0 0 5.18-1.777c.444-.49.565-1.176.316-1.79a5.685 5.685 0 0 0-2.415-2.77 5.804 5.804 0 0 0-.2-3.556 1.742 1.742 0 0 0-1.474-1.107 5.799 5.799 0 0 0-6.053 4.108 3.69 3.69 0 0 0-.899-.189V33.2h3.68a.98.98 0 1 0 0-1.96H34.57a5.793 5.793 0 0 0-1.44-4.387 1.743 1.743 0 0 0-1.77-.52 5.8 5.8 0 0 0-4.198 4.907H16.038a.327.327 0 0 1-.326-.326v-8.111a.98.98 0 1 0-1.96 0v8.11a2.289 2.289 0 0 0 2.286 2.287h5.572a5.672 5.672 0 0 0-.323 2.248c.037.613.425 1.167.989 1.411a5.637 5.637 0 0 0 6.015-.968 3.65 3.65 0 0 0 .45 2.627 3.65 3.65 0 0 0 2.182 1.662v2.28a5.79 5.79 0 0 0-5.122-.472 1.742 1.742 0 0 0-1.107 1.475A5.801 5.801 0 0 0 27 48.608a5.82 5.82 0 0 0 2.474 1.072c-2.024 2.723-2.73 5.273-2.764 5.402a.98.98 0 0 0-.032.239c-2.04 1.102-3.76 1.74-6.914.5-2.886-1.135-5.588-1.863-8.03-2.163a.979.979 0 1 0-.24 1.944Zm19.428-2.35c-.607.206-1.167.445-1.694.7.369-.816.918-1.855 1.694-2.931v2.23Zm4.87-.668c-.21-.007-.425-.011-.646-.011-.822 0-1.572.068-2.265.184v-3.499c.425-.24.718-.662.791-1.15a13.46 13.46 0 0 1 2.12-1.391v5.867Zm11.122-10.113a3.682 3.682 0 0 1-3.277 1.045 3.716 3.716 0 0 1-1.058-.355 5.845 5.845 0 0 0 2.817-2.023c.057-.077.11-.155.164-.233a3.72 3.72 0 0 1 1.354 1.566Zm-5.789-4.541a3.856 3.856 0 0 1 3.273-1.54 3.847 3.847 0 0 1-.569 3.57 3.845 3.845 0 0 1-3.273 1.544 3.84 3.84 0 0 1 .57-3.574Zm-2.72 2.67c.035.627.172 1.252.413 1.846.055.137.127.262.214.375a1.784 1.784 0 0 1-1.125.95l-.155.046V40.34c.233.042.455.13.653.26Zm-2.612 3.939c-.807.36-1.578.787-2.311 1.28a5.892 5.892 0 0 0-.6-1.38v-9.61c.47-.47.86-1.021 1.148-1.629h1.763v11.339ZM29.23 30.851a3.85 3.85 0 0 1 2.524-2.59 3.847 3.847 0 0 1 .72 3.544 3.838 3.838 0 0 1-2.523 2.593 3.84 3.84 0 0 1-.721-3.547Zm-2.581 3.845a3.68 3.68 0 0 1-3.413.439 3.712 3.712 0 0 1 .532-1.935h3.49c.053.243.122.482.206.717-.229.299-.502.56-.815.78Zm3.773 2.817a1.709 1.709 0 0 1-.223-1.151l.034-.007c.236-.061.465-.138.689-.228v1.922a1.733 1.733 0 0 1-.5-.536Zm-3.786 6.256a3.847 3.847 0 0 1 3.572.569 3.837 3.837 0 0 1 1.543 3.273 3.84 3.84 0 0 1-3.574-.57 3.85 3.85 0 0 1-1.54-3.272Z" fill="#7DA543" stroke="#fff" stroke-width=".6" mask="url(#b)"/><path d="M1.473 58.19a.83.83 0 0 1-.15-1.164c1.359-1.765 3.341-2.854 5.906-3.228a.83.83 0 0 1 .24 1.642c-2.107.308-3.738 1.178-4.832 2.599a.828.828 0 0 1-1.164.151Zm.507 9H66.9a.83.83 0 1 1 0 1.66H1.98a.83.83 0 1 1 0-1.66Zm29.848-7.474a.83.83 0 0 1 .83-.83h1.262a.83.83 0 1 1 0 1.66h-1.263a.83.83 0 0 1-.83-.83Zm5.574 1.901a.83.83 0 0 1 .83-.83h2.071a.83.83 0 1 1 0 1.66h-2.072a.83.83 0 0 1-.83-.83Zm-25.357-.372h-1.333a.83.83 0 1 1 0-1.66h1.333a.83.83 0 1 1 0 1.66Zm39.216 2.349a.83.83 0 0 1 .83-.83h2.065a.83.83 0 1 1 0 1.66h-2.065a.83.83 0 0 1-.83-.83Zm-36.179 0a.83.83 0 0 1 .83-.83h3.383a.83.83 0 1 1 0 1.66h-3.384a.83.83 0 0 1-.83-.83ZM48 24.24l-.124-.086a5.046 5.046 0 0 0 .519-4.882 1.498 1.498 0 0 0-1.299-.909L48 24.24Zm0 0-.124-.086a5.044 5.044 0 0 1-4.89 2.111.704.704 0 0 0-.044-.01l-.03-.005-.03.006-.03.006a5.164 5.164 0 0 1-.762.058c-1.64 0-3.18-.79-4.144-2.166a5.046 5.046 0 0 1-.518-4.882c.22-.524.73-.88 1.298-.909a5.047 5.047 0 0 1 4.072 1.73l.113.129.113-.13a5.047 5.047 0 0 1 4.072-1.729L48 24.24Zm-8.977-4.224-.108-.001.514 3.1-.123.087a3.397 3.397 0 0 0 2.403 1.435l.206.024-.042-.204a5.028 5.028 0 0 1 .124-2.53l.019-.06-.03-.055a3.398 3.398 0 0 0-2.963-1.796Zm4.596 4.544.036.1h.107a3.396 3.396 0 0 0 2.755-1.458c.636-.909.79-2.048.426-3.085l-.035-.102-.108.001a3.397 3.397 0 0 0-2.754 1.456 3.398 3.398 0 0 0-.427 3.087Zm-14.503-5.423h-8.2a.83.83 0 1 1 0-1.66h8.2a.83.83 0 1 1 0 1.66Zm3.774 1.492a.83.83 0 1 1 0 1.66H20.916a.83.83 0 1 1 0-1.66h11.976Zm-12.805 5.739a.83.83 0 0 1 .83-.83h4.905a.83.83 0 1 1 0 1.66h-4.905a.83.83 0 0 1-.83-.83Z" fill="#7DA543" stroke="#fff" stroke-width=".3"/></g><defs><clipPath id="a"><path fill="#fff" d="M0 0h69v69H0z"/></clipPath></defs></svg>