<svg width="69" height="69" viewBox="0 0 69 69" fill="none" xmlns="http://www.w3.org/2000/svg"><g clip-path="url(#a)" fill="#7DA543"><path d="M15.478 57.726h-2.094a.595.595 0 1 1 0-1.19h2.094a.595.595 0 1 1 0 1.19Zm5.952 0h-2.093a.595.595 0 1 1 0-1.19h2.094a.595.595 0 1 1 0 1.19Zm5.954 0H25.29a.595.595 0 1 1 0-1.19h2.094a.595.595 0 1 1 0 1.19Zm-9.525 3.572h-2.094a.595.595 0 1 1 0-1.19h2.094a.595.595 0 0 1 0 1.19Zm5.953 0h-2.094a.595.595 0 1 1 0-1.19h2.094a.595.595 0 1 1 0 1.19Zm34.529-3.572h-2.094a.595.595 0 0 1 0-1.19h2.094a.595.595 0 0 1 0 1.19Zm-5.953 0h-2.093a.595.595 0 0 1 0-1.19h2.093a.595.595 0 1 1 0 1.19Zm-5.953 0h-2.094a.595.595 0 1 1 0-1.19h2.094a.595.595 0 0 1 0 1.19Zm9.525 3.572h-2.093a.595.595 0 1 1 0-1.19h2.093a.595.595 0 1 1 0 1.19Zm-5.953 0h-2.093a.595.595 0 1 1 0-1.19h2.093a.595.595 0 1 1 0 1.19Zm11.165-33.993c-1.295-1.668-4.225-2.846-6.53-2.624-1.806.17-4.029 1.327-4.132 3.366l-4.915.47 7.732-7.82c1.701 1.15 4.003.164 5.29-1.123 1.629-1.638 2.511-4.608 1.966-6.62a.595.595 0 0 0-.448-.426c-2.077-.456-5.087.5-6.71 2.132-1.28 1.283-2.221 3.583-.979 5.205l-7.798 7.916v-3.59c2-.294 2.98-2.554 2.994-4.354.022-2.29-1.424-5.071-3.223-6.2a.595.595 0 0 0-.611-.013c-1.826 1.041-3.33 3.756-3.352 6.05-.023 1.838.962 4.183 3.002 4.507v4.804l-7.001 7.08V19.29c1.946-.694 2.996-3.005 3.018-4.931 0-2.22-1.281-4.248-3.345-5.294a.595.595 0 0 0-.538 0c-2.063 1.046-3.345 3.074-3.345 5.294.022 1.925 1.073 4.238 3.019 4.931v21.36l-6.941-7.02v-4.804c2.04-.324 3.024-2.67 3.001-4.506-.022-2.295-1.526-5.01-3.352-6.05a.596.596 0 0 0-.611.012c-1.799 1.129-3.245 3.91-3.223 6.2.015 1.8.994 4.06 2.994 4.353v3.59l-7.798-7.915c1.242-1.622.302-3.923-.978-5.205-1.624-1.632-4.634-2.588-6.712-2.133a.595.595 0 0 0-.447.426c-.545 2.013.337 4.982 1.967 6.62 1.286 1.288 3.588 2.273 5.289 1.123l7.732 7.82-4.915-.47c-.103-2.039-2.326-3.195-4.132-3.366-2.305-.22-5.235.957-6.53 2.624a.595.595 0 0 0-.068.62c.892 1.885 3.498 3.598 5.81 3.819 1.827.174 4.243-.544 4.79-2.513l6.352.608 1.16 1.174h-.858c-2.112 0-3.83 1.71-3.83 3.813v.854l-1.176-1.336a.595.595 0 0 0-.894.787l1.4 1.59c-2.634.45-4.384 2.358-4.384 4.946 0 3.125 2.518 5.666 5.614 5.666 3.097 0 5.615-2.541 5.615-5.666 0-2.565-1.72-4.462-4.315-4.934l1.407-1.644a.595.595 0 0 0-.904-.774l-1.172 1.369v-.858a2.633 2.633 0 0 1 2.638-2.622h2.037l5.434 5.495v4.178a.595.595 0 1 0 1.19 0V37.76l5.494-5.556h2.036a2.633 2.633 0 0 1 2.638 2.622v.858l-1.171-1.37a.595.595 0 0 0-.905.775l1.407 1.644c-2.595.473-4.315 2.37-4.315 4.934 0 3.125 2.519 5.667 5.615 5.667s5.615-2.542 5.615-5.667c0-2.588-1.75-4.496-4.384-4.947l1.4-1.589a.595.595 0 1 0-.894-.787l-1.177 1.337v-.855c0-2.102-1.718-3.813-3.829-3.813h-.86l1.162-1.174 6.352-.608c.547 1.97 2.962 2.687 4.79 2.513 2.311-.22 4.918-1.934 5.81-3.818a.594.594 0 0 0-.068-.62ZM54.27 15.5c1.25-1.258 3.559-2.062 5.241-1.87.249 1.61-.496 3.856-1.738 5.104-.853.824-2.36 1.672-3.578 1.086l2.532-2.568a.595.595 0 1 0-.844-.84l-2.579 2.591c-.683-1.17.155-2.65.966-3.503Zm-35.79 8.147-2.58-2.592a.595.595 0 1 0-.843.84l2.532 2.568c-1.218.587-2.725-.262-3.578-1.086-1.242-1.248-1.987-3.493-1.738-5.104 1.682-.191 3.99.613 5.241 1.87.81.854 1.65 2.333.965 3.504Zm-2.192 9.763 3.63.347c-.553 1.24-2.265 1.532-3.452 1.445-1.767-.17-3.803-1.418-4.665-2.81 1.163-1.21 3.452-2.052 5.227-1.883 1.172.141 2.779.735 3.03 2.065l-3.657-.35a.596.596 0 0 0-.113 1.186ZM27.73 23.405a.595.595 0 0 0-.595.595v3.614c-1.292-.363-1.766-1.975-1.803-3.144-.017-1.759 1.038-3.934 2.363-4.968 1.336.964 2.425 3.076 2.441 4.828-.01 1.197-.49 2.879-1.81 3.27V24a.595.595 0 0 0-.596-.595Zm1.222 22.905c0 2.468-1.985 4.476-4.424 4.476-2.44 0-4.425-2.008-4.425-4.476 0-2.666 2.222-3.859 4.425-3.859 2.202 0 4.424 1.193 4.424 3.859Zm6.135-28.421c-1.048-.908-1.648-2.195-1.648-3.531 0-1.671.92-3.21 2.423-4.085 1.503.874 2.424 2.414 2.424 4.085-.005 1.39-.663 2.801-1.828 3.659v-3.66a.595.595 0 0 0-1.191 0v3.66a1.177 1.177 0 0 1-.18-.128Zm12.17 19.918c2.202 0 4.424 1.194 4.424 3.86 0 2.467-1.985 4.475-4.425 4.475-2.44 0-4.424-2.008-4.424-4.476 0-2.665 2.222-3.858 4.424-3.858Zm-3.203-19.046a.595.595 0 0 0-.595.596v3.6c-1.321-.392-1.8-2.074-1.811-3.27.017-1.753 1.105-3.865 2.441-4.829 1.325 1.034 2.38 3.21 2.363 4.968-.037 1.169-.51 2.781-1.803 3.144v-3.613a.595.595 0 0 0-.595-.595Zm11.264 11.797c-1.187.087-2.9-.205-3.451-1.445l3.63-.347a.595.595 0 1 0-.114-1.185l-3.658.35c.252-1.33 1.859-1.925 3.031-2.065 1.775-.17 4.063.673 5.227 1.882-.862 1.392-2.898 2.64-4.665 2.81Z"/><path d="M35.826 51.037a.714.714 0 1 0 0-1.428.714.714 0 0 0 0 1.428Zm26.23 1.898H9.667a.595.595 0 0 0-.595.596v10.61c0 .33.267.596.595.596h52.39a.595.595 0 0 0 .595-.595V53.53a.595.595 0 0 0-.596-.596Zm-.595 10.611H10.263v-9.42h25.004v3.904L32.9 60.121c-.587.504.219 1.412.789.892l1.577-1.394v2.353a.595.595 0 0 0 1.19 0v-4.644l1.562 1.38c.57.52 1.375-.39.788-.892l-2.35-2.077v-1.613H61.46v9.42ZM11.381 45.63A2.384 2.384 0 0 1 9 43.248a2.384 2.384 0 0 1 2.381-2.381 2.384 2.384 0 0 1 2.382 2.381 2.384 2.384 0 0 1-2.382 2.382Zm0-3.573a1.192 1.192 0 0 0 0 2.381 1.191 1.191 0 0 0 .001-2.38Zm11.385-28.239a2.384 2.384 0 0 1-2.381-2.382 2.384 2.384 0 0 1 2.381-2.381 2.384 2.384 0 0 1 2.381 2.381 2.384 2.384 0 0 1-2.38 2.382Zm0-3.572a1.19 1.19 0 1 0 1.19 1.19c0-.656-.534-1.19-1.19-1.19Zm37.268 38.677a2.384 2.384 0 0 1-2.382-2.381 2.384 2.384 0 0 1 2.382-2.382 2.384 2.384 0 0 1 2.381 2.382 2.384 2.384 0 0 1-2.381 2.381Zm0-3.572a1.192 1.192 0 0 0-.001 2.382 1.192 1.192 0 0 0 0-2.381Z"/></g><defs><clipPath id="a"><path fill="#fff" d="M0 0h69v69H0z"/></clipPath></defs></svg>