<svg width="69" height="69" viewBox="0 0 69 69" fill="none" xmlns="http://www.w3.org/2000/svg"><path fill-rule="evenodd" clip-rule="evenodd" d="M64.273 61.757h-6.18c-.4 0-.726-.352-.726-.786 0-2.458-1.85-4.457-4.123-4.457s-4.122 2-4.122 4.457c0 .434-.326.786-.727.786h-6.179c-.401 0-.727-.352-.727-.786V45.336c0-.434.327-.786.727-.786h16.116c3.676 0 6.668 3.235 6.668 7.21v9.212c0 .432-.326.785-.727.785Zm-5.5-1.572h4.773V51.76c0-3.108-2.339-5.637-5.214-5.637h-15.39v14.063h4.774c.357-2.954 2.7-5.243 5.528-5.243 2.828 0 5.172 2.29 5.53 5.243Z" fill="#7DA543"/><path fill-rule="evenodd" clip-rule="evenodd" d="M63.18 51.257c-4.778 0-5.072-7-3.215-6.485 2.403.66 4.313 2.775 4.867 5.387.212.998-1.032 1.098-1.651 1.098Zm-2.816-4.685c-.044 1.687 1.231 3.112 2.813 3.113-.516-1.39-1.54-2.522-2.813-3.114Z" fill="#7DA543"/><path fill-rule="evenodd" clip-rule="evenodd" d="M58.332 46.122H42.216c-.4 0-.727-.353-.727-.786v-9.42c0-.434.327-.786.727-.786h11.76c2.803 0 5.083 2.465 5.083 5.495v4.711c0 .434-.326.786-.727.786Zm-15.39-1.571h14.664v-3.926c0-2.164-1.629-3.924-3.63-3.924H42.944v7.85Z" fill="#7DA543"/><path fill-rule="evenodd" clip-rule="evenodd" d="M45.739 46.122c-.401 0-.727-.353-.727-.786v-9.42c0-1.035 1.453-1.035 1.453 0v9.42c0 .433-.325.786-.726.786Zm9.087 6.675h-12.61c-.957 0-.956-1.572 0-1.572h11.883v-5.889c0-1.034 1.454-1.034 1.454 0v6.674c0 .434-.326.787-.727.787Zm9.447 5.846h-7.126c-.957 0-.957-1.57 0-1.57h7.126c.956 0 .956 1.57 0 1.57Zm-14.931 0h-7.126c-.957 0-.956-1.57 0-1.57h7.126c.956 0 .956 1.57 0 1.57Z" fill="#7DA543"/><path fill-rule="evenodd" clip-rule="evenodd" d="M53.244 67c-3.074 0-5.576-2.705-5.576-6.029s2.502-6.029 5.576-6.029c3.075 0 5.577 2.705 5.577 6.03C58.82 64.294 56.318 67 53.244 67Zm0-10.486c-2.273 0-4.122 2-4.122 4.457 0 2.458 1.85 4.457 4.122 4.457 2.274 0 4.123-1.999 4.123-4.457 0-2.458-1.85-4.457-4.123-4.457Z" fill="#7DA543"/><path fill-rule="evenodd" clip-rule="evenodd" d="M53.244 64.037c-3.73 0-3.73-6.131 0-6.131 3.732 0 3.731 6.13 0 6.13Zm0-4.56c-1.818 0-1.817 2.988 0 2.988 1.818 0 1.818-2.988 0-2.988Zm-11.028 2.28H17.39c-.4 0-.726-.352-.726-.786 0-2.458-1.85-4.457-4.123-4.457s-4.123 2-4.123 4.457c0 .434-.325.786-.726.786H3.726c-.4 0-.726-.352-.726-.786V50.967c0-.434.326-.786.726-.786h38.49c.4 0 .726.352.726.786v10.005c0 .433-.325.785-.726.785Zm-24.148-1.572h23.42v-8.433H4.453v8.433H7.01c.357-2.954 2.7-5.243 5.529-5.243 2.828 0 5.171 2.29 5.528 5.243Z" fill="#7DA543"/><path fill-rule="evenodd" clip-rule="evenodd" d="M39.016 58.297c-1.011 0-.727-1.605-.727-3.085H17.844c-.956 0-.956-1.572 0-1.572h21.172c.4 0 .726.353.726.786v3.086c0 .433-.325.785-.726.785ZM12.54 67c-3.074 0-5.576-2.705-5.576-6.029s2.502-6.029 5.576-6.029 5.576 2.705 5.576 6.03c0 3.323-2.502 6.028-5.576 6.028Zm0-10.486c-2.273 0-4.123 2-4.123 4.457 0 2.458 1.85 4.457 4.123 4.457s4.123-1.999 4.123-4.457c0-2.458-1.85-4.457-4.123-4.457Z" fill="#7DA543"/><path fill-rule="evenodd" clip-rule="evenodd" d="M12.54 64.037c-3.731 0-3.731-6.131 0-6.131s3.73 6.13 0 6.13Zm0-4.56c-1.818 0-1.818 2.988 0 2.988s1.818-2.988 0-2.988Zm-8.813-5.425c-.401 0-.727-.352-.727-.785V42.965c0-1.034 1.453-1.034 1.453 0v10.301c0 .434-.325.786-.726.786Zm44.7-4.878h-2.56c-.956 0-.956-1.571 0-1.571h2.56c.956 0 .956 1.57 0 1.57Zm-16.52 2.455h-20.25c-1.592 0-.657-4.634 2.42-4.033.685-1.856 2.62-2.796 4.37-2.1 1.5-1.608 3.956-1.374 5.191.468 1.402-1.109 3.36-.914 4.539.473 2.68-1.055 5.324 1.723 4.42 4.654-.1.321-.378.538-.69.538Zm-19.493-1.572h18.9c.094-1.752-1.647-2.835-2.983-1.967-1.023.665-.968-1.27-2.67-1.27-1.544 0-1.455 1.392-2.331 1.244-.9-.151-.552-2.072-2.471-2.072-1.613 0-1.62 1.773-2.59 1.146-1.21-.781-2.795.035-2.966 1.572-.133 1.19-1.362.413-1.7.412-.555 0-1.026.393-1.189.935Zm15.88-22.176c-2.54 0-4.299-3.07-2.416-6.15 1.6-2.617 5.395-3.743 6.036-2.653 1.603 2.728.074 8.803-3.62 8.803Zm2.55-7.634c-2.107.01-5.183 2.87-4.09 5.069.659 1.324 2.418 1.457 3.562-.415.699-1.144 1.04-3.346.527-4.654Z" fill="#7DA543"/><path fill-rule="evenodd" clip-rule="evenodd" d="M26.928 27.438c-.573 0-.926-.694-.605-1.219l2.737-4.48c.528-.862 1.74.003 1.213.867l-2.738 4.48a.714.714 0 0 1-.607.352Z" fill="#7DA543"/><path fill-rule="evenodd" clip-rule="evenodd" d="M22.074 46.304c-.404 0-.73-.356-.727-.792.031-3.743.582-13.12 5.005-19.338.581-.817 1.734.14 1.153.958-4.156 5.842-4.675 14.81-4.705 18.393-.004.432-.328.78-.726.78Z" fill="#7DA543"/><path fill-rule="evenodd" clip-rule="evenodd" d="M23.207 36.31c-.61 0-4.966-2.735-5.077-9.941-.016-1.036 1.437-1.06 1.453-.026.101 6.39 3.783 8.391 3.939 8.474.695.366.449 1.494-.315 1.494Zm-.618 3.295c-.609 0-.953-.774-.559-1.287 2.56-3.334 9.477-6.361 9.632-4.125.03.433-.27.81-.67.842-4.798.386-7.813 4.247-7.843 4.286a.706.706 0 0 1-.56.284Z" fill="#7DA543"/><path fill-rule="evenodd" clip-rule="evenodd" d="M34.116 37.914c-5.248 0-5.248-7.324 0-7.324 2.7 0 5.914 2.676 5.374 3.983-.89 2.151-3.743 3.34-5.374 3.34Zm0-5.752c-3.335 0-3.334 4.18 0 4.18 1.269 0 3.155-.907 3.883-2.09-.728-1.183-2.614-2.09-3.883-2.09Z" fill="#7DA543"/><path fill-rule="evenodd" clip-rule="evenodd" d="M35.863 35.038h-4.966c-.956 0-.956-1.571 0-1.571h4.966c.957 0 .957 1.57 0 1.57Zm-13.755 9.837a.723.723 0 0 1-.653-.441c-.022-.05-2.263-4.941-5.179-5.677-.932-.235-.6-1.764.33-1.53 3.59.906 6.052 6.29 6.155 6.518.236.525-.127 1.13-.653 1.13Z" fill="#7DA543"/><path fill-rule="evenodd" clip-rule="evenodd" d="M13.994 40.455c-3.687 0-6.452-5.236-5.369-6.337 2.689-2.73 9.527-1.097 8.671 3.526-.307 1.654-1.665 2.81-3.302 2.81Zm-4.107-5.419c.299 1.662 2.26 3.848 4.107 3.848 2.707 0 2.829-4.502-1.647-4.502-.994 0-1.883.24-2.46.654Z" fill="#7DA543"/><path fill-rule="evenodd" clip-rule="evenodd" d="M16.44 38.779c-.327 0-4.236-1.846-4.862-2.129-.88-.397-.319-1.847.56-1.45l4.583 2.068c.73.33.506 1.51-.28 1.51Zm2.417-11.637c-1.683 0-3.387-1.466-3.387-4.266 0-2.922 2.477-6.395 3.684-5.811 1.99.963 3.09 4.047 3.09 5.81 0 2.801-1.704 4.267-3.387 4.267Zm0-8.465c-2.296 1.651-2.777 6.893 0 6.893 2.775 0 2.296-5.241 0-6.893Z" fill="#7DA543"/><path fill-rule="evenodd" clip-rule="evenodd" d="M18.857 27.142c-.401 0-.727-.352-.727-.786v-5.37c0-1.033 1.453-1.033 1.453 0v5.37c0 .434-.325.786-.726.786Zm32.327 18.98c-4.305 0-3.7.641-3.7-3.564 0-3.15 4.427-3.15 4.427 0v2.779c0 .433-.326.785-.727.785Zm-2.247-1.571h1.52c0-1.301.264-2.815-.76-2.815s-.76 1.515-.76 2.815Z" fill="#7DA543"/></svg>