<svg width="69" height="69" viewBox="0 0 69 69" fill="none" xmlns="http://www.w3.org/2000/svg"><g clip-path="url(#a)" fill="#7DA543"><path d="M57.285 17.08c-.415-1.915-2.154-3.303-4.24-3.303-2.085 0-3.824 1.389-4.24 3.305a4.345 4.345 0 0 0-2.865 2.028l-9.755-9.438a.672.672 0 0 0-.929 0l-15.753 15.24a.624.624 0 0 0 0 .899l8.246 7.978a.672.672 0 0 0 .929 0 .62.62 0 0 0 0-.898l-7.782-7.53 5.129-4.962c.32 5.503 7.04 8.834 12.19 7.842a.646.646 0 0 0 .481-.466c.74-2.918-.618-7.188-3.026-9.519-1.298-1.231-3.165-2.225-5.079-2.275l5.13-4.962 12.21 11.814-15.234 14.74c-.258.259-.31.715-.028.976l1.225 1.185a.685.685 0 0 0 .464.186l7.431.002a.668.668 0 0 0 .465-.186L54.292 28.09a.651.651 0 0 0 0-.898l-7.375-7.135c.426-.988 1.398-1.689 2.523-1.783a.646.646 0 0 0 .597-.578c.135-1.485 1.456-2.647 3.008-2.647 1.553 0 2.874 1.162 3.01 2.647a.645.645 0 0 0 .596.578c1.545.13 2.754 1.4 2.754 2.891 0 1.602-1.355 2.905-3.021 2.905a.646.646 0 0 0-.657.635c0 .35.294.635.657.635 2.39 0 4.334-1.873 4.334-4.175 0-2.01-1.443-3.685-3.433-4.084Zm-26.665.172c1.564.076 3.068.91 4.12 1.903 1.98 1.914 3.186 5.445 2.762 7.93-2.568.411-6.218-.756-8.197-2.67-1.389-1.38-2.733-3.89-1.416-5.732l2.294 2.22.421 3.19c.098.821 1.423.653 1.303-.162l-.206-1.56 2.148 2.079c.594.591 1.54-.325.929-.899l-2.148-2.078 1.612.199c.84.119 1.015-1.168.166-1.26l-3.296-.407-2.295-2.22a3.303 3.303 0 0 1 1.803-.533ZM52.9 27.64 41.516 38.652l-6.887-.002-.594-.576L48.86 23.732l4.04 3.908ZM38.302 50.2c-1.557 0-2.824-1.538-2.824-3.43 0-1.891 1.267-3.43 2.824-3.43s2.823 1.539 2.823 3.43c0 1.892-1.266 3.43-2.823 3.43Zm0-5.59c-.819 0-1.51.99-1.51 2.16 0 1.171.691 2.16 1.51 2.16.819 0 1.51-.989 1.51-2.16 0-1.17-.691-2.16-1.51-2.16Zm26.041 22.6H61.26c.109-.934-.275-4.008-3.02-5.373.86-.676 1.625-1.119 2.205-1.267.35-.09.56-.438.466-.777a.66.66 0 0 0-.803-.451c-.979.25-2.057.984-2.931 1.698a7.875 7.875 0 0 1 2.362-3.67.621.621 0 0 0 .05-.898.672.672 0 0 0-.928-.047 9.178 9.178 0 0 0-2.87 4.712 11.194 11.194 0 0 0-2.253-.006c-1.416-2.547-5.2-5.81-10.465-4.263-.926-1.418-2.562-1.395-3.617-.731-.922-.842-2.309-1.678-4.27-1.846-.194-1.663-1.373-2.947-2.794-2.947-1.557 0-2.823 1.54-2.823 3.43 0 .31.034.61.098.895a7.466 7.466 0 0 0-1.892 2.07c-5.561-2.72-10.48-.75-12.766 3.391-.81-.074-1.563-.07-2.259.008a9.17 9.17 0 0 0-2.87-4.713.672.672 0 0 0-.928.047.62.62 0 0 0 .05.898 7.87 7.87 0 0 1 2.362 3.67c-.875-.714-1.953-1.447-2.931-1.698a.66.66 0 0 0-.803.45.633.633 0 0 0 .466.778c.582.149 1.35.594 2.212 1.273-.38.197-.733.43-1.052.701-2.218 2.142-1.881 3.857-1.973 4.667H4.198a.646.646 0 0 0-.657.635c0 .351.294.635.657.635h60.145a.646.646 0 0 0 .657-.635.646.646 0 0 0-.657-.635ZM40.928 56.936c.819 0 1.51.989 1.51 2.16 0 1.17-.691 2.16-1.51 2.16-.819 0-1.51-.99-1.51-2.16 0-1.171.691-2.16 1.51-2.16Zm-8.536-4.32c.819 0 1.51.99 1.51 2.16 0 1.17-.691 2.16-1.51 2.16-.818 0-1.51-.99-1.51-2.16 0-1.17.692-2.16 1.51-2.16ZM8.597 67.211c.085-.72-.223-1.98 1.538-3.722 1.156-.977 2.897-1.33 5.174-1.048.29.035.57-.12.686-.378.013-.03 1.34-2.918 4.362-3.947 2.132-.726 4.62-.378 7.395 1.034.33.176.778.018.913-.322.005-.012.442-1.02 1.51-1.922a.62.62 0 0 0 .058.076c.518.747 1.293 1.223 2.16 1.223 1.322 0 2.435-1.111 2.74-2.606l.008-.037a5.821 5.821 0 0 1 3.475 1.554c-1.266 1.932-.037 5.496 2.312 5.409 1.938.072 3.295-2.516 2.689-4.485 4.687-1.624 8.697 2.944 8.952 4.037.12.252.396.399.68.364 2.277-.283 4.018.07 5.174 1.047 1.762 1.758 1.464 2.99 1.523 3.722H8.596Zm4.893-21.007c-3.174 0-5.756-2.497-5.756-5.568 0-2.851 4.693-9.059 5.228-9.758.245-.338.81-.338 1.055 0 .535.699 5.227 6.907 5.227 9.758 0 3.07-2.581 5.568-5.755 5.568Zm0-13.862c-1.6 2.189-4.442 6.46-4.442 8.294 0 2.37 1.992 4.298 4.441 4.298 2.45 0 4.442-1.928 4.442-4.298 0-1.835-2.842-6.105-4.442-8.294Z"/><path d="M13.1 43.246a.68.68 0 0 1-.123-.011c-1.275-.236-2.209-1.318-2.221-2.573a.62.62 0 0 1 .004-.077c.018-.155.108-.616.553-1.562.15-.319.54-.46.87-.315.33.146.475.523.325.842-.328.698-.417 1.049-.438 1.148.03.632.507 1.17 1.153 1.289.769.123.646 1.28-.123 1.26Zm45.041 3.56c-2.093 0-3.795-1.647-3.795-3.672 0-1.834 2.933-5.716 3.268-6.153.245-.339.81-.339 1.055 0 .334.437 3.267 4.319 3.267 6.153 0 2.025-1.702 3.672-3.795 3.672Zm0-8.355c-1.121 1.566-2.482 3.766-2.482 4.683 0 1.324 1.113 2.401 2.482 2.401 1.369 0 2.482-1.077 2.482-2.401 0-.918-1.36-3.118-2.482-4.683Zm-43.05-17.889H8.414c-2.39 0-4.334-1.873-4.334-4.174 0-2.01 1.443-3.686 3.433-4.085C7.93 10.388 9.668 9 11.753 9c2.085 0 3.824 1.388 4.24 3.303 1.99.4 3.433 2.075 3.433 4.085 0 2.301-1.945 4.174-4.335 4.174ZM11.753 10.27c-1.552 0-2.874 1.164-3.009 2.648a.646.646 0 0 1-.597.577c-1.544.13-2.754 1.4-2.754 2.893 0 1.601 1.356 2.904 3.021 2.904h6.677c1.666 0 3.021-1.303 3.021-2.904 0-1.492-1.21-2.763-2.753-2.893a.646.646 0 0 1-.597-.577c-.135-1.484-1.457-2.647-3.01-2.647Zm18.603 25.91a.775.775 0 0 0 .788-.763.775.775 0 0 0-.788-.763.775.775 0 0 0-.788.763c0 .42.353.762.788.762Z"/></g><defs><clipPath id="a"><path fill="#fff" d="M0 0h69v69H0z"/></clipPath></defs></svg>